#N canvas 827 239 734 565 12;
#X obj 1066 2345 dac~, f 15;
#X obj 1066 2308 *~;
#X obj 1152 2308 *~;
#X obj 1249 2259 tgl 25 1 empty empty empty 17 7 0 10 #e4e4e4 #4d4d4d #373737 1 1;
#X obj 403 963 osc~;
#X obj 403 804 bng 25 250 50 0 empty empty empty 17 7 0 10 #e4e4e4 #4d4d4d #373737;
#X obj 468 899 t b;
#X msg 469 927 0;
#X obj 403 1032 *~;
#X obj 618 933 *~;
#X obj 403 899 vline~;
#X obj 618 899 vline~;
#X obj 403 1062 clip~ -0.75 0.75;
#X obj 111 929 noise~;
#X obj 111 963 svf~ 70 0.6;
#X obj 186 893 vline~;
#X msg 186 855 100 \, 100 5 \, 80 5 5 \, 60 15 10;
#X obj 111 990 *~ 0.4;
#X obj 918 977 osc~;
#X obj 918 818 bng 25 250 50 0 empty empty empty 17 7 0 10 #e4e4e4 #4d4d4d #373737;
#X obj 983 913 t b;
#X msg 984 941 0;
#X obj 918 913 vline~;
#X obj 1089 947 *~;
#X obj 1089 913 vline~;
#X obj 918 1013 *~;
#X obj 1254 913 noise~;
#X obj 1254 1013 *~;
#X obj 1359 947 *~;
#X obj 1359 913 vline~;
#X obj 1254 941 svf~ 160 0.1;
#X msg 918 869 1200 \, 250 8 \, 240 60 8;
#X obj 1157 913 noise~;
#X obj 1157 941 svf~ 160 0.1;
#X obj 1157 1013 *~;
#X obj 918 1113 throw~ mixL;
#X obj 1037 1113 throw~ mixR;
#X obj 403 1099 throw~ mixL;
#X obj 532 1032 *~;
#X obj 532 1062 clip~ -0.75 0.75;
#X obj 532 1099 throw~ mixR;
#X obj 1066 1265 catch~ mixL;
#X obj 1152 1265 catch~ mixR;
#X obj 238 929 noise~;
#X obj 238 963 svf~ 70 0.6;
#X obj 238 990 *~ 0.4;
#X obj 1157 974 *~ 1.5;
#X obj 1254 974 *~ 1.5;
#X obj 124 1258 noise~;
#X obj 418 1232 bng 25 250 50 0 empty empty empty 17 7 0 10 #e4e4e4 #4d4d4d #373737;
#X obj 418 1380 *~;
#X obj 418 1319 vline~;
#X obj 124 1427 *~;
#X obj 311 1258 noise~;
#X obj 311 1427 *~;
#X obj 124 1461 throw~ mixL;
#X obj 311 1461 throw~ mixR;
#X obj 311 1286 svf~ 500 0.1;
#X obj 124 1286 svf~ 500 0.1;
#X obj 403 766 r bang_kick;
#X obj 918 780 r bang_sn;
#X obj 418 1196 r bang_chh;
#X obj 618 1232 bng 25 250 50 0 empty empty empty 17 7 0 10 #e4e4e4 #4d4d4d #373737;
#X obj 618 1196 r bang_ohh;
#X obj 41 128 bng 25 250 50 0 empty empty empty 17 7 0 10 #e4e4e4 #4d4d4d #373737;
#X obj 315 137 sel 0 1 2 3 4 5 6 7 8 9 10 11 12 13 14;
#X obj 315 279 s bang_kick;
#X floatatom 41 239 5 0 0 0 - - - 12;
#X obj 41 205 count 15;
#X obj 424 279 s bang_sn;
#X obj 531 279 s bang_chh;
#X msg 418 1275 0 \, 0.4 2 \, 0.1 18 2 \, 0 90 20;
#X obj 630 279 s bang_ohh;
#X obj 21 1334 svf~ 7000 0.5;
#X obj 209 1334 svf~ 7000 0.5;
#X obj 315 242 spigot;
#X obj 424 242 spigot;
#X obj 531 242 spigot;
#X obj 630 242 spigot;
#X obj 667 118 tgl 25 1 empty empty empty 17 7 0 10 #e4e4e4 #4d4d4d #373737 1 1;
#X obj 718 118 tgl 25 1 empty empty empty 17 7 0 10 #e4e4e4 #4d4d4d #373737 1 1;
#X obj 767 118 tgl 25 1 empty empty empty 17 7 0 10 #e4e4e4 #4d4d4d #373737 1 1;
#X obj 918 1076 clip~ -0.55 0.55;
#X obj 1037 1076 clip~ -0.55 0.55;
#X obj 1321 1729 *~ 0.5;
#X msg 1089 869 0 \, 0.7 3 \, 0 90 3;
#X obj 1321 1867 expr~ max($v1 \, 1e-6);
#X obj 1321 1904 lin2db~;
#X obj 1321 2081 db2lin~;
#X obj 1066 2216 *~;
#X msg 1359 869 0 \, 0.4 3 \, 0.2 17 3 \, 0 360 20;
#X obj 1321 1822 fexpr~ if($x1[0] > $y1[-1] \, $x2[0]*($x1[0]-$y1[-1]) \, $x3[0]*($x1[0]-$y1[-1])) + $y1[-1], f 44;
#X obj 1466 1789 expr~ 1 / max($v1 \, 1);
#X obj 1611 1789 expr~ 1 / max($v1 \, 1);
#X obj 1466 1650 t f b;
#X obj 1499 1690 samplerate~;
#X obj 1466 1757 *;
#X obj 1499 1719 / 1000;
#X obj 1611 1650 t f b;
#X obj 1644 1690 samplerate~;
#X obj 1611 1757 *;
#X obj 1644 1719 / 1000;
#X obj 1466 1578 loadbang;
#X obj 1152 2216 *~;
#X text 1431 1612 atk;
#X text 1578 1611 rel;
#X text 1589 1936 ratio;
#X obj 1628 1966 expr 1/max($f1 \, 1)-1;
#X obj 1611 1578 loadbang;
#X obj 1628 1904 loadbang;
#X obj 1499 1904 loadbang;
#X text 1448 1936 thresh;
#X obj 1321 1974 -~;
#X obj 1449 2012 *~;
#X obj 1321 2041 expr~ if($v1 > 0 \, $v2 \, 0);
#X obj 1486 2081 scope~ 242 99 256 3 128 -6 0 0 0 0 0 77 77 77 228 228 228 183 183 183 0 empty;
#X obj 1321 1760 hip~ 500;
#X obj 1321 1792 *~;
#X obj 1321 1937 *~ 0.5;
#X msg 618 855 0 \, 0.9 2.5 \, 0 280 2.5;
#X msg 403 855 1400 \, 180 5 \, 80 5 5 \, 58 15 10;
#X obj 958 513 osc~;
#X obj 958 479 mtof;
#X obj 958 446 + 60;
#X obj 958 679 throw~ mixL;
#X obj 1074 679 throw~ mixR;
#X floatatom 893 228 5 0 0 0 - - - 12;
#X obj 958 413 +;
#X obj 958 581 *~;
#X obj 1157 434 vline~;
#X obj 1157 470 *~;
#X obj 958 197 / 2;
#X obj 958 164 spigot;
#X obj 41 265 s count16;
#X obj 315 96 r count16;
#X obj 958 53 r count16;
#X obj 1066 1566 +~;
#X obj 1152 1566 +~;
#X obj 982 378 r note_offset;
#X obj 1474 661 delwrite~ delay_sin 1000;
#X obj 1128 565 delread~ delay_sin 175;
#X obj 1302 601 *~ 0.15;
#X obj 1128 601 *~ 0.15;
#X obj 1474 565 delread~ delay_sin 189;
#X obj 1302 565 delread~ delay_sin 160;
#X msg 1134 189 8;
#X msg 1368 189 5;
#X msg 1678 189 12;
#X msg 1555 189 7;
#X msg 1495 189 5;
#X msg 1251 189 0;
#X msg 1397 189 6;
#X msg 1198 189 12;
#X msg 1031 189 3;
#X msg 1055 189 5;
#X msg 1527 189 6;
#X msg 1582 189 8;
#X msg 1466 189 4;
#X msg 1613 189 9;
#X obj 958 338 expr floor(($f1 * 12 + $i2) / 5);
#X msg 1116 298 0;
#X msg 1144 298 1;
#X msg 1171 298 2;
#X msg 1198 298 3;
#X msg 1225 298 4;
#X msg 1082 189 6;
#X msg 1108 189 7;
#X msg 1166 189 11;
#X obj 958 239 expr floor((1 + cos(2*3.141592*(($f1+ $i3) / $i2))) * $i4/2), f 70;
#X msg 1282 189 1;
#X msg 1311 189 2;
#X msg 1341 189 3;
#X text 1097 162 melo sin freq;
#X text 1274 162 melo sin phase;
#X text 1507 162 melo sin amp;
#X floatatom 893 274 5 0 0 0 - - - 12;
#X obj 325 623 s note_offset;
#X msg 326 571 0;
#X msg 362 571 -5;
#X msg 407 571 5;
#X msg 511 571 7;
#X obj 2423 126 r note_offset;
#X obj 2423 519 throw~ mixL;
#X obj 2539 519 throw~ mixR;
#X obj 2423 193 mtof;
#X obj 2423 248 osc~;
#X obj 2423 161 + 36;
#X obj 624 539 vline~;
#X obj 624 575 *~;
#X obj 624 458 r bang_kick;
#X obj 2423 441 *~;
#X obj 918 941 *~ 0.96;
#X obj 403 929 *~ 1.03;
#X msg 434 571 -2;
#X msg 475 571 1;
#X obj 2423 319 tanh~;
#X msg 1466 1612 70;
#X obj 1832 129 r note_offset;
#X obj 1784 520 mtof;
#X obj 1784 952 throw~ mixL;
#X obj 1900 952 throw~ mixR;
#X obj 1832 163 + 72;
#X obj 1784 554 square~;
#X obj 1891 554 square~;
#X obj 2003 554 square~;
#X obj 2119 554 square~;
#X obj 1784 909 *~;
#X obj 1910 849 tgl 25 1 empty empty empty 17 7 0 10 #e4e4e4 #4d4d4d #373737 1 1;
#X obj 1891 520 mtof;
#X obj 2003 520 mtof;
#X obj 2119 520 mtof;
#X msg 1989 167 0;
#X msg 2037 167 3;
#X msg 2083 167 4;
#X obj 1784 488 +;
#X obj 1988 218 + 0;
#X obj 1891 488 +;
#X obj 2003 488 +;
#X obj 2119 488 +;
#X obj 1784 329 + 0;
#X obj 1891 329 + 2;
#X obj 2003 329 + 4;
#X obj 2116 329 + 6;
#X obj 1784 278 bng 25 250 50 0 empty empty empty 17 7 0 10 #e4e4e4 #4d4d4d #373737;
#X obj 1784 364 expr floor(($f1 * 12 + $i2) / 7);
#X obj 1891 389 expr floor(($f1 * 12 + $i2) / 7);
#X obj 2003 417 expr floor(($f1 * 12 + $i2) / 7);
#X obj 2119 448 expr floor(($f1 * 12 + $i2) / 7);
#X msg 2130 167 5;
#X obj 1784 228 t b;
#X msg 1644 189 11;
#X obj 325 529 sel 0 1 2 3 4;
#X obj 213 279 s bang_beat;
#X obj 325 452 r bang_beat;
#X obj 325 492 random 6;
#X obj 1396 114 loadbang;
#X obj 2161 116 loadbang;
#X obj 1142 267 loadbang;
#X obj 1784 707 *~;
#X obj 1900 909 *~;
#X obj 1961 806 delwrite~ chordL 200;
#X obj 1961 732 delread4~ chordL;
#X obj 2195 732 delread4~ chordR;
#X obj 2195 806 delwrite~ chordR 200;
#X obj 2091 655 osc~ 2;
#X obj 724 458 loadbang;
#X text 2130 140 M7;
#X text 2083 140 7;
#X text 2037 140 m7;
#X text 1981 140 m7-5;
#X obj 311 1380 *~ 0.12;
#X obj 124 1380 *~ 0.12;
#X obj 2423 476 *~;
#X obj 2519 441 tgl 25 1 empty empty empty 17 7 0 10 #e4e4e4 #4d4d4d #373737 1 1;
#X obj 1291 1402 lop~ 5000;
#X obj 1365 1402 lop~ 5000;
#X obj 1961 701 expr~ 50+0.5*$v1;
#X obj 2195 701 expr~ 60-0.5*$v1;
#X msg 1629 1937 4;
#X obj 1321 1698 *~;
#X obj 1332 1650 tgl 25 1 empty empty empty 17 7 0 10 #e4e4e4 #4d4d4d #373737 1 1;
#X msg 1611 1612 160;
#X msg 618 1275 0 \, 0.5 2 \, 0.38 18 2 \, 0 350 20;
#X obj 1012 513 osc~;
#X obj 1012 479 mtof;
#X obj 1012 446 + 26;
#X msg 1157 390 1 4 \, 0 120 4;
#X msg 624 495 0.3 5 \, 1 190 40;
#X obj 1860 599 osc~ 0.1;
#X obj 1860 628 scale~ -1 1 480 5000;
#X obj 1961 764 *~ -0.7;
#X obj 2195 764 *~ -0.7;
#X obj 1291 1329 *~;
#X obj 1365 1329 *~;
#X obj 1403 1281 tgl 25 1 empty empty empty 17 7 0 10 #e4e4e4 #4d4d4d #373737 1 1;
#X obj 1291 1477 *~ 0.25;
#X obj 1353 1477 *~ 0.25;
#X obj 1291 1441 rev3~ 100 93 3000 0;
#X obj 41 87 loadbang;
#X obj 1881 661 r~ ducking;
#X obj 624 617 s~ ducking;
#X obj 2457 399 r~ ducking;
#X text 361 765 kick;
#X text 1001 779 snare;
#X text 358 1195 hihat;
#X text 1490 1542 bus comp;
#X text 1335 1264 reverb;
#X text 41 42 conductor;
#X text 449 45 drum sequence;
#X text 326 422 random root note;
#X text 1268 16 bell;
#X text 630 422 kick ducking envelope;
#X text 1939 68 chord;
#X text 2423 77 bass;
#X text 1099 1227 mix output;
#X obj 98 2183 osc~;
#X obj 98 1877 bng 25 250 50 0 empty empty empty 17 7 0 10 #e4e4e4 #4d4d4d #373737;
#X obj 182 2102 t b;
#X msg 183 2130 0;
#X obj 98 2102 vline~;
#X obj 274 2136 *~;
#X obj 274 2102 vline~;
#X obj 98 2264 *~;
#X obj 98 2364 throw~ mixL;
#X obj 217 2364 throw~ mixR;
#X obj 98 1839 r count16;
#X obj 98 2017 pack f f;
#X obj 98 1941 random 100;
#X obj 241 1941 random 100;
#X obj 98 1978 scale 0 100 400 1600;
#X obj 241 1978 scale 0 100 400 1600;
#X obj 555 2347 delwrite~ delay_perc 1000;
#X obj 274 2212 *~;
#X obj 322 2177 tgl 25 1 empty empty empty 17 7 0 10 #e4e4e4 #4d4d4d #373737 1 1;
#X obj 555 2276 delread~ delay_perc 260;
#X obj 383 2276 delread~ delay_perc 340;
#X obj 209 2276 delread~ delay_perc 350;
#X obj 555 2312 *~ 0.8;
#X obj 157 2264 *~;
#X obj 164 2183 osc~;
#X obj 117 2142 *~ 1.04;
#X obj 209 2312 *~ 0.16;
#X obj 383 2312 *~ 0.16;
#X msg 98 2058 \$1 15 \, \$2 50 15;
#X text 200 1838 perc;
#X obj 2423 285 *~ 1.2;
#X msg 274 2058 0 \, 0.12 5 \, 0 48 5;
#X msg 1499 1937 -22;
#X obj 41 171 metro 83;
#X msg 100 128 83;
#X msg 145 128 166;
#X obj 1784 661 svf~ 700 0.6;
#X obj 1879 1141 r note_offset;
#X obj 2182 1543 vline~;
#X obj 1879 1289 saw~;
#X obj 1879 1226 mtof;
#X obj 1879 1855 throw~ mixL;
#X obj 2001 1855 throw~ mixR;
#X obj 1879 1660 *~;
#X obj 2076 1612 tgl 25 1 empty empty empty 17 7 0 10 #e4e4e4 #4d4d4d #373737 1 1;
#X obj 1949 1289 saw~;
#X obj 1879 1439 svf~ 4500 0.4;
#X obj 1879 1594 *~;
#X msg 2182 1497 1 100 \, 0.7 800 100 \, 0 400 900;
#X obj 1879 1470 svf~ 5200 0.3;
#X obj 2017 1289 saw~;
#X obj 1791 1250 noise~;
#X obj 2001 1439 svf~ 4500 0.4;
#X obj 2001 1470 svf~ 5200 0.3;
#X obj 2001 1594 *~;
#X obj 2001 1660 *~;
#X obj 2017 1262 - 1.3;
#X obj 1949 1262 + 1.3;
#X obj 1879 1410 svf~ 3400 0.5;
#X obj 2001 1410 svf~ 3400 0.5;
#X obj 1879 1497 svf~ 8000 2;
#X obj 2001 1497 svf~ 8000 2;
#X obj 1879 1188 + 79;
#X msg 1833 1141 0;
#X obj 1976 1141 r voice;
#X obj 516 356 s voice;
#X msg 517 324 0;
#X obj 2182 1459 r bang_beat;
#X text 1918 1095 voice;
#X text 661 92 kick;
#X text 712 92 snare;
#X text 767 92 hihat;
#X obj 958 93 spigot;
#X obj 1066 53 tgl 25 1 empty empty empty 17 7 0 10 #e4e4e4 #4d4d4d #373737 1 1;
#X obj 982 129 expr $i1%2==1;
#X obj 1879 1344 svf~ 900 0.6;
#X obj 2001 1344 svf~ 900 0.6;
#X obj 1791 1289 hip~ 600;
#X obj 2124 1719 delay~ 120;
#X obj 2207 1719 delay~ 120;
#X obj 2124 1804 *~ 0.4;
#X obj 2182 1804 *~ 0.4;
#X obj 2124 1763 rev3~ 100 95 3000 0;
#X obj 521 1690 *~ 0.1;
#X obj 572 2148 throw~ mixL;
#X obj 759 2148 throw~ mixR;
#X obj 572 1896 *~;
#X obj 521 1792 *~;
#X obj 657 1881 tgl 25 1 empty empty empty 17 7 0 10 #e4e4e4 #4d4d4d #373737 1 1;
#X obj 840 1783 vline~;
#X obj 840 1822 *~;
#X obj 459 1556 square~ 245 0.01;
#X obj 532 1594 square~ 415 0.01;
#X obj 587 1556 square~ 306 0.01;
#X obj 713 1556 square~ 365 0.01;
#X obj 662 1594 square~ 437 0.01;
#X obj 793 1594 square~ 619 0.01;
#X obj 419 1611 noise~;
#X obj 637 1998 *~ 0.5;
#X obj 809 2058 delwrite~ dcymR 1000;
#X obj 637 2058 delwrite~ dcymL 1000;
#X obj 637 1962 delread~ dcymL 480;
#X obj 809 1962 delread~ dcymR 480;
#X obj 809 1998 *~ 0.8;
#X obj 521 1829 svf~ 6000 0.78;
#X obj 840 1648 r bang_beat;
#X obj 840 1685 count 4;
#X obj 840 1719 sel 0;
#X text 666 1516 cymbal;
#X obj 2001 1378 svf~ 1700 0.7;
#X obj 1879 1378 svf~ 1700 0.7;
#X obj 1291 1368 hip~ 500;
#X obj 1365 1368 hip~ 500;
#X obj 2423 349 *~ 0.2;
#X obj 1474 601 *~ 0.5;
#X msg 840 1752 0.3 2 \, 0 1600 2;
#X obj 958 541 *~ 0.078;
#X obj 1784 599 *~ 0.008;
#X obj 701 575 sig~ 1;
#X obj 1879 1548 *~ 0.018;
#X obj 2001 1548 *~ 0.018;
#X connect 1 0 0 0;
#X connect 2 0 0 1;
#X connect 3 0 2 1;
#X connect 3 0 1 1;
#X connect 4 0 38 0;
#X connect 4 0 8 0;
#X connect 5 0 120 0;
#X connect 5 0 119 0;
#X connect 5 0 16 0;
#X connect 6 0 7 0;
#X connect 7 0 4 1;
#X connect 8 0 12 0;
#X connect 9 0 38 1;
#X connect 9 0 8 1;
#X connect 10 0 192 0;
#X connect 11 0 9 0;
#X connect 11 0 9 1;
#X connect 12 0 37 0;
#X connect 13 0 14 0;
#X connect 14 0 17 0;
#X connect 15 0 14 1;
#X connect 15 0 44 1;
#X connect 16 0 15 0;
#X connect 17 0 8 0;
#X connect 18 0 25 0;
#X connect 19 0 31 0;
#X connect 19 0 85 0;
#X connect 19 0 90 0;
#X connect 20 0 21 0;
#X connect 21 0 18 1;
#X connect 22 0 191 0;
#X connect 23 0 25 1;
#X connect 24 0 23 0;
#X connect 24 0 23 1;
#X connect 25 0 82 0;
#X connect 25 0 83 0;
#X connect 26 0 30 0;
#X connect 27 0 83 0;
#X connect 28 0 27 1;
#X connect 28 0 34 1;
#X connect 29 0 28 0;
#X connect 29 0 28 1;
#X connect 30 1 47 0;
#X connect 31 0 22 0;
#X connect 31 0 20 0;
#X connect 32 0 33 0;
#X connect 33 1 46 0;
#X connect 34 0 82 0;
#X connect 38 0 39 0;
#X connect 39 0 40 0;
#X connect 41 0 136 0;
#X connect 41 0 272 0;
#X connect 42 0 137 0;
#X connect 42 0 273 0;
#X connect 43 0 44 0;
#X connect 44 0 45 0;
#X connect 45 0 38 0;
#X connect 46 0 34 0;
#X connect 47 0 27 0;
#X connect 48 0 58 0;
#X connect 49 0 71 0;
#X connect 50 0 54 1;
#X connect 50 0 52 1;
#X connect 51 0 50 0;
#X connect 51 0 50 1;
#X connect 52 0 55 0;
#X connect 53 0 57 0;
#X connect 54 0 56 0;
#X connect 57 1 74 0;
#X connect 57 1 250 0;
#X connect 58 1 73 0;
#X connect 58 1 251 0;
#X connect 59 0 5 0;
#X connect 60 0 19 0;
#X connect 61 0 49 0;
#X connect 62 0 262 0;
#X connect 63 0 62 0;
#X connect 64 0 328 0;
#X connect 65 0 75 0;
#X connect 65 0 77 0;
#X connect 65 0 232 0;
#X connect 65 2 77 0;
#X connect 65 4 76 0;
#X connect 65 4 77 0;
#X connect 65 6 77 0;
#X connect 65 6 361 0;
#X connect 65 7 77 0;
#X connect 65 8 77 0;
#X connect 65 10 77 0;
#X connect 65 10 75 0;
#X connect 65 12 76 0;
#X connect 65 12 77 0;
#X connect 65 14 78 0;
#X connect 67 0 133 0;
#X connect 68 0 67 0;
#X connect 71 0 51 0;
#X connect 73 1 251 0;
#X connect 74 1 250 0;
#X connect 75 0 66 0;
#X connect 76 0 69 0;
#X connect 77 0 70 0;
#X connect 78 0 72 0;
#X connect 79 0 75 1;
#X connect 80 0 76 1;
#X connect 81 0 77 1;
#X connect 81 0 78 1;
#X connect 82 0 35 0;
#X connect 83 0 36 0;
#X connect 84 0 116 0;
#X connect 85 0 24 0;
#X connect 86 0 87 0;
#X connect 87 0 118 0;
#X connect 88 0 103 1;
#X connect 88 0 89 1;
#X connect 89 0 1 0;
#X connect 90 0 29 0;
#X connect 91 0 86 0;
#X connect 92 0 91 1;
#X connect 93 0 91 2;
#X connect 94 0 96 0;
#X connect 94 1 95 0;
#X connect 95 0 97 0;
#X connect 96 0 92 0;
#X connect 97 0 96 1;
#X connect 98 0 100 0;
#X connect 98 1 99 0;
#X connect 99 0 101 0;
#X connect 100 0 93 0;
#X connect 101 0 100 1;
#X connect 102 0 196 0;
#X connect 103 0 2 0;
#X connect 107 0 113 1;
#X connect 108 0 261 0;
#X connect 109 0 258 0;
#X connect 110 0 327 0;
#X connect 112 0 113 0;
#X connect 112 0 114 0;
#X connect 113 0 114 1;
#X connect 114 0 88 0;
#X connect 114 0 115 0;
#X connect 116 0 117 0;
#X connect 116 0 117 1;
#X connect 117 0 91 0;
#X connect 118 0 112 0;
#X connect 119 0 11 0;
#X connect 120 0 10 0;
#X connect 120 0 6 0;
#X connect 121 0 411 0;
#X connect 122 0 121 0;
#X connect 123 0 122 0;
#X connect 123 0 265 0;
#X connect 127 0 123 0;
#X connect 128 0 124 0;
#X connect 128 0 125 0;
#X connect 128 0 139 0;
#X connect 129 0 130 0;
#X connect 129 0 130 1;
#X connect 130 0 128 1;
#X connect 131 0 126 0;
#X connect 131 0 168 0;
#X connect 132 0 131 0;
#X connect 134 0 65 0;
#X connect 135 0 367 0;
#X connect 136 0 259 0;
#X connect 136 0 89 0;
#X connect 137 0 103 0;
#X connect 137 0 259 0;
#X connect 138 0 127 1;
#X connect 140 0 142 0;
#X connect 141 0 125 0;
#X connect 142 0 124 0;
#X connect 143 0 409 0;
#X connect 144 0 141 0;
#X connect 145 0 168 1;
#X connect 146 0 168 2;
#X connect 147 0 168 3;
#X connect 148 0 168 3;
#X connect 149 0 168 3;
#X connect 150 0 168 2;
#X connect 151 0 168 2;
#X connect 152 0 168 1;
#X connect 153 0 168 1;
#X connect 154 0 168 1;
#X connect 155 0 168 3;
#X connect 156 0 168 3;
#X connect 157 0 168 3;
#X connect 158 0 168 3;
#X connect 159 0 127 0;
#X connect 159 0 266 0;
#X connect 160 0 159 1;
#X connect 161 0 159 1;
#X connect 162 0 159 1;
#X connect 163 0 159 1;
#X connect 164 0 159 1;
#X connect 165 0 168 1;
#X connect 166 0 168 1;
#X connect 167 0 168 1;
#X connect 168 0 175 0;
#X connect 168 0 159 0;
#X connect 169 0 168 2;
#X connect 170 0 168 2;
#X connect 171 0 168 2;
#X connect 177 0 176 0;
#X connect 178 0 176 0;
#X connect 179 0 176 0;
#X connect 180 0 176 0;
#X connect 181 0 186 0;
#X connect 184 0 185 0;
#X connect 185 0 325 0;
#X connect 186 0 184 0;
#X connect 187 0 188 0;
#X connect 187 0 188 1;
#X connect 188 0 280 0;
#X connect 189 0 267 0;
#X connect 190 0 252 0;
#X connect 191 0 18 0;
#X connect 192 0 4 0;
#X connect 193 0 176 0;
#X connect 194 0 176 0;
#X connect 195 0 408 0;
#X connect 196 0 94 0;
#X connect 197 0 201 0;
#X connect 198 0 202 0;
#X connect 201 0 214 1;
#X connect 201 0 216 1;
#X connect 201 0 217 1;
#X connect 201 0 218 1;
#X connect 201 0 229 0;
#X connect 202 0 412 0;
#X connect 203 0 412 0;
#X connect 204 0 412 0;
#X connect 205 0 412 0;
#X connect 206 0 199 0;
#X connect 207 0 206 1;
#X connect 207 0 239 1;
#X connect 208 0 203 0;
#X connect 209 0 204 0;
#X connect 210 0 205 0;
#X connect 211 0 215 0;
#X connect 212 0 215 0;
#X connect 213 0 215 0;
#X connect 214 0 198 0;
#X connect 215 0 224 1;
#X connect 215 0 225 1;
#X connect 215 0 226 1;
#X connect 215 0 227 1;
#X connect 215 0 229 0;
#X connect 216 0 208 0;
#X connect 217 0 209 0;
#X connect 218 0 210 0;
#X connect 219 0 224 0;
#X connect 220 0 225 0;
#X connect 221 0 226 0;
#X connect 222 0 227 0;
#X connect 223 0 219 0;
#X connect 223 0 220 0;
#X connect 223 0 221 0;
#X connect 223 0 222 0;
#X connect 224 0 214 0;
#X connect 225 0 216 0;
#X connect 226 0 217 0;
#X connect 227 0 218 0;
#X connect 228 0 215 0;
#X connect 229 0 223 0;
#X connect 230 0 168 3;
#X connect 231 0 177 0;
#X connect 231 1 178 0;
#X connect 231 2 179 0;
#X connect 231 3 193 0;
#X connect 231 4 194 0;
#X connect 231 5 180 0;
#X connect 233 0 234 0;
#X connect 234 0 231 0;
#X connect 235 0 154 0;
#X connect 235 0 170 0;
#X connect 235 0 158 0;
#X connect 236 0 228 0;
#X connect 237 0 161 0;
#X connect 238 0 239 0;
#X connect 238 0 240 0;
#X connect 238 0 243 0;
#X connect 238 0 206 0;
#X connect 239 0 200 0;
#X connect 241 0 270 0;
#X connect 242 0 271 0;
#X connect 244 0 256 0;
#X connect 244 0 257 0;
#X connect 245 0 267 0;
#X connect 250 0 54 0;
#X connect 251 0 52 0;
#X connect 252 0 183 0;
#X connect 252 0 182 0;
#X connect 253 0 252 1;
#X connect 254 0 277 0;
#X connect 255 0 277 1;
#X connect 256 0 241 0;
#X connect 257 0 242 0;
#X connect 258 0 107 0;
#X connect 259 0 84 0;
#X connect 260 0 259 1;
#X connect 261 0 98 0;
#X connect 262 0 51 0;
#X connect 263 0 411 0;
#X connect 264 0 263 0;
#X connect 265 0 264 0;
#X connect 266 0 129 0;
#X connect 267 0 187 0;
#X connect 268 0 269 0;
#X connect 269 0 331 1;
#X connect 270 0 240 0;
#X connect 270 0 206 0;
#X connect 271 0 239 0;
#X connect 271 0 243 0;
#X connect 272 0 406 0;
#X connect 273 0 407 0;
#X connect 274 0 272 1;
#X connect 274 0 273 1;
#X connect 275 0 136 1;
#X connect 276 0 137 1;
#X connect 277 0 275 0;
#X connect 277 1 276 0;
#X connect 278 0 64 0;
#X connect 279 0 238 1;
#X connect 281 0 190 1;
#X connect 295 0 302 0;
#X connect 296 0 307 0;
#X connect 296 0 308 0;
#X connect 296 0 326 0;
#X connect 297 0 298 0;
#X connect 298 0 295 1;
#X connect 298 0 319 1;
#X connect 299 0 295 0;
#X connect 299 0 320 0;
#X connect 300 0 312 0;
#X connect 301 0 300 0;
#X connect 301 0 300 1;
#X connect 302 0 303 0;
#X connect 302 0 311 0;
#X connect 305 0 296 0;
#X connect 306 0 323 0;
#X connect 307 0 309 0;
#X connect 308 0 310 0;
#X connect 309 0 306 0;
#X connect 310 0 306 1;
#X connect 312 0 302 1;
#X connect 312 0 318 1;
#X connect 313 0 312 1;
#X connect 314 0 317 0;
#X connect 315 0 322 0;
#X connect 316 0 321 0;
#X connect 317 0 311 0;
#X connect 318 0 304 0;
#X connect 318 0 311 0;
#X connect 319 0 318 0;
#X connect 320 0 319 0;
#X connect 321 0 303 0;
#X connect 322 0 304 0;
#X connect 323 0 299 0;
#X connect 323 0 297 0;
#X connect 325 0 195 0;
#X connect 326 0 301 0;
#X connect 327 0 112 1;
#X connect 328 0 68 0;
#X connect 329 0 328 1;
#X connect 330 0 328 1;
#X connect 331 0 238 0;
#X connect 331 2 238 0;
#X connect 332 0 357 0;
#X connect 333 0 342 1;
#X connect 333 0 349 1;
#X connect 334 0 370 0;
#X connect 334 0 371 0;
#X connect 335 0 334 0;
#X connect 335 0 351 0;
#X connect 335 0 352 0;
#X connect 338 0 336 0;
#X connect 338 0 373 0;
#X connect 339 0 338 1;
#X connect 339 0 350 1;
#X connect 340 0 370 0;
#X connect 341 0 344 0;
#X connect 342 0 338 0;
#X connect 343 0 333 0;
#X connect 344 0 355 0;
#X connect 345 0 371 0;
#X connect 346 0 372 0;
#X connect 347 0 348 0;
#X connect 348 0 356 0;
#X connect 349 0 350 0;
#X connect 350 0 337 0;
#X connect 350 0 374 0;
#X connect 351 0 345 0;
#X connect 352 0 340 0;
#X connect 353 0 341 0;
#X connect 354 0 347 0;
#X connect 355 3 414 0;
#X connect 356 3 415 0;
#X connect 357 0 335 0;
#X connect 358 0 357 0;
#X connect 359 0 357 0;
#X connect 361 0 360 0;
#X connect 362 0 343 0;
#X connect 367 0 132 0;
#X connect 367 0 369 0;
#X connect 368 0 367 1;
#X connect 369 0 132 1;
#X connect 370 0 405 0;
#X connect 371 0 404 0;
#X connect 372 0 370 0;
#X connect 372 0 371 0;
#X connect 373 0 377 0;
#X connect 374 0 377 1;
#X connect 375 0 336 0;
#X connect 376 0 337 0;
#X connect 377 0 375 0;
#X connect 377 1 376 0;
#X connect 377 2 375 0;
#X connect 377 3 376 0;
#X connect 378 0 382 0;
#X connect 381 0 380 0;
#X connect 381 0 379 0;
#X connect 381 0 395 0;
#X connect 382 0 399 0;
#X connect 383 0 381 1;
#X connect 384 0 385 0;
#X connect 384 0 385 1;
#X connect 385 0 382 1;
#X connect 386 0 378 0;
#X connect 387 0 378 0;
#X connect 388 0 378 0;
#X connect 389 0 378 0;
#X connect 390 0 378 0;
#X connect 391 0 378 0;
#X connect 392 0 378 0;
#X connect 393 0 394 0;
#X connect 393 0 379 0;
#X connect 396 0 393 0;
#X connect 397 0 398 0;
#X connect 398 0 395 0;
#X connect 398 0 380 0;
#X connect 399 2 381 0;
#X connect 400 0 401 0;
#X connect 401 0 402 0;
#X connect 402 0 410 0;
#X connect 404 0 354 0;
#X connect 405 0 353 0;
#X connect 406 0 254 0;
#X connect 407 0 255 0;
#X connect 408 0 190 0;
#X connect 409 0 139 0;
#X connect 410 0 384 0;
#X connect 411 0 128 0;
#X connect 412 0 331 0;
#X connect 414 0 342 0;
#X connect 415 0 349 0;
