#N canvas 827 239 527 327 12;
#X obj 447 334 osc~;
#X obj 159 961 dac~;
#X obj 159 912 *~ 0.1;
#X obj 447 383 *~;
#X obj 447 302 +~;
#X obj 730 399 scope~ 200 100 256 3 128 -1 1 0 0 0 0 77 77 77 228 228 228 183 183 183 0 empty;
#X floatatom 316 119 4 0 0 0 - - - 24;
#X obj 716 334 *~;
#X obj 716 228 vline~;
#X obj 837 301 expr 1-$f1;
#X obj 716 290 *~;
#X obj 716 259 rpole~;
#X floatatom 838 259 10 -1 1 0 - - - 16;
#X obj 927 192 samplerate~;
#X floatatom 838 134 10 0 1000 0 - - - 16;
#X obj 927 165 t b;
#X obj 838 228 expr 1-exp(-$f1*1000/$f2);
#X obj 458 168 *~;
#X obj 475 119 hsl 128 17 1 20 0 1 empty empty empty -2 -8 0 10 #e4e4e4 #4d4d4d #373737 4577 1;
#X obj 458 249 *~ 200;
#X obj 458 206 osc~;
#X obj 532 187 hsl 128 17 0 500 0 1 empty empty empty -2 -8 0 10 #e4e4e4 #4d4d4d #373737 11727 1;
#X obj 365 636 +~;
#X msg 716 192 1 \, 0 1000;
#X obj 159 636 +~;
#X obj 365 912 *~ 0.1;
#X obj 159 543 *~ 1;
#X obj 365 543 *~ 1;
#X obj 365 385 vline~;
#X obj 365 438 +~;
#X msg 365 349 1 \, 0 1;
#X obj 365 777 +~;
#X obj 159 777 +~;
#X obj 159 684 *~ 1;
#X obj 365 684 *~ 1;
#X obj 319 84 hsl 128 17 20 8000 1 1 empty empty empty -2 -8 0 10 #e4e4e4 #4d4d4d #373737 5272 1;
#X obj 841 87 hsl 128 17 0.1 500 1 1 empty empty empty -2 -8 0 10 #e4e4e4 #4d4d4d #373737 10805 1;
#X obj 365 589 *~ 0.5;
#X obj 243 589 *~ -0.5;
#X obj 159 589 *~ 0.5;
#X obj 37 589 *~ -0.5;
#X obj 37 543 delread~ L1 5.93;
#X obj 243 543 delread~ R1 5.96;
#X obj 243 684 delread~ R2 11.58;
#X obj 37 684 delread~ L2 11.72;
#X obj 159 730 *~ -0.5;
#X obj 365 730 *~ -0.5;
#X obj 243 730 *~ 0.5;
#X obj 37 730 *~ 0.5;
#X obj 37 827 delwrite~ L3 2000;
#X obj 243 827 delwrite~ R3 2000;
#X obj 37 636 delwrite~ L1 100;
#X obj 243 636 delwrite~ R1 100;
#X obj 37 777 delwrite~ L2 100;
#X obj 243 777 delwrite~ R2 100;
#X obj 37 438 delread~ L3 150.33;
#X obj 243 438 delread~ R3 200;
#X obj 37 486 *~ 0.15;
#X obj 243 486 *~ 0.15;
#X text 854 56 envelope attack;
#X obj 716 120 bng 49 250 50 0 empty empty empty 17 7 0 10 #e4e4e4 #4d4d4d #373737;
#X text 360 54 carrier freq;
#X text 491 93 modulator mult;
#X text 539 157 modulator amount;
#X text 168 407 APF chain;
#X connect 0 0 3 0;
#X connect 2 0 1 0;
#X connect 3 0 29 0;
#X connect 4 0 0 0;
#X connect 6 0 4 0;
#X connect 6 0 17 0;
#X connect 7 0 5 0;
#X connect 7 0 3 1;
#X connect 8 0 11 0;
#X connect 9 0 10 1;
#X connect 10 0 7 0;
#X connect 10 0 7 1;
#X connect 11 0 10 0;
#X connect 12 0 9 0;
#X connect 12 0 11 1;
#X connect 13 0 16 1;
#X connect 14 0 15 0;
#X connect 14 0 16 0;
#X connect 15 0 13 0;
#X connect 16 0 12 0;
#X connect 17 0 20 0;
#X connect 18 0 17 1;
#X connect 19 0 4 1;
#X connect 20 0 19 0;
#X connect 21 0 19 1;
#X connect 22 0 34 0;
#X connect 23 0 8 0;
#X connect 24 0 33 0;
#X connect 25 0 1 1;
#X connect 26 0 39 0;
#X connect 26 0 51 0;
#X connect 27 0 37 0;
#X connect 27 0 52 0;
#X connect 28 0 29 0;
#X connect 29 0 26 0;
#X connect 29 0 27 0;
#X connect 30 0 28 0;
#X connect 31 0 25 0;
#X connect 31 0 50 0;
#X connect 32 0 2 0;
#X connect 32 0 49 0;
#X connect 33 0 45 0;
#X connect 33 0 53 0;
#X connect 34 0 46 0;
#X connect 34 0 54 0;
#X connect 35 0 6 0;
#X connect 36 0 14 0;
#X connect 37 0 22 1;
#X connect 38 0 52 0;
#X connect 39 0 24 1;
#X connect 40 0 51 0;
#X connect 41 0 24 0;
#X connect 41 0 40 0;
#X connect 42 0 22 0;
#X connect 42 0 38 0;
#X connect 43 0 31 0;
#X connect 43 0 47 0;
#X connect 44 0 32 0;
#X connect 44 0 48 0;
#X connect 45 0 32 1;
#X connect 46 0 31 1;
#X connect 47 0 54 0;
#X connect 48 0 53 0;
#X connect 55 0 57 0;
#X connect 56 0 58 0;
#X connect 57 0 26 0;
#X connect 58 0 27 0;
#X connect 60 0 23 0;
