#N canvas 827 239 527 327 12;
#X obj 301 986 dac~;
#X obj 240 872 *~;
#X obj 370 872 *~;
#X obj 513 814 tgl 47 0 empty empty empty 17 7 0 10 #e4e4e4 #4d4d4d #373737 0 1;
#X obj 240 511 osc~;
#X obj 240 604 *~;
#X obj 315 474 osc~;
#X obj 378 474 osc~;
#X obj 441 474 osc~;
#X obj 240 727 expr~ sin($v1);
#X obj 240 789 expr~ asin($v1);
#X obj 370 604 *~;
#X obj 441 440 *~ 12.7;
#X obj 378 440 *~ 7.1;
#X obj 315 440 *~ 4.7;
#X obj 315 511 /~ 3;
#X msg 315 396 0.1;
#X obj 370 727 expr~ sin($v1);
#X obj 370 789 expr~ asin($v1);
#X obj 513 474 osc~;
#X obj 576 474 osc~;
#X obj 639 474 osc~;
#X obj 639 440 *~ 12.7;
#X obj 576 440 *~ 7.1;
#X obj 513 440 *~ 4.7;
#X obj 513 511 /~ 3;
#X msg 513 396 0.11;
#X obj 846 511 osc~;
#X obj 846 604 *~;
#X obj 921 474 osc~;
#X obj 984 474 osc~;
#X obj 1047 474 osc~;
#X obj 976 604 *~;
#X obj 1047 440 *~ 12.7;
#X obj 984 440 *~ 7.1;
#X obj 921 440 *~ 4.7;
#X obj 921 511 /~ 3;
#X obj 1119 474 osc~;
#X obj 1182 474 osc~;
#X obj 1245 474 osc~;
#X obj 1245 440 *~ 12.7;
#X obj 1182 440 *~ 7.1;
#X obj 1119 440 *~ 4.7;
#X obj 1119 511 /~ 3;
#X msg 921 396 0.12;
#X msg 1119 396 0.115;
#X obj 846 727 expr~ sin($v1);
#X obj 976 727 expr~ sin($v1);
#X floatatom 106 396 5 0 0 0 - - - 12;
#X obj 110 255 vsl 17 128 20 2000 1 1 empty empty empty 0 -9 0 10 #e4e4e4 #4d4d4d #373737 2408 1;
#X obj 240 910 *~ 0.8;
#X obj 370 910 *~ 0.8;
#X obj 106 474 s~ freq;
#X obj 240 440 r~ freq;
#X obj 846 440 r~ freq;
#X obj 240 641 *~ 0.3;
#X obj 370 641 *~ 0.3;
#X obj 846 641 *~ 0.3;
#X obj 976 641 *~ 0.3;
#X obj 106 440 sig~;
#X obj 1451 511 osc~;
#X obj 1526 474 osc~;
#X obj 1589 474 osc~;
#X obj 1652 474 osc~;
#X obj 1652 440 *~ 12.7;
#X obj 1589 440 *~ 7.1;
#X obj 1526 440 *~ 4.7;
#X obj 1526 511 /~ 3;
#X obj 1724 474 osc~;
#X obj 1787 474 osc~;
#X obj 1787 440 *~ 7.1;
#X obj 1724 440 *~ 4.7;
#X obj 1724 511 /~ 3;
#X obj 1479 360 *~;
#X obj 1451 180 r~ freq;
#X obj 1692 61 vsl 17 128 0 3000 0 1 empty empty empty 0 -9 0 10 #e4e4e4 #4d4d4d #373737 2148 1;
#X floatatom 1688 214 5 0 0 0 - - - 12;
#X obj 1479 298 osc~;
#X obj 1479 271 *~;
#X obj 1632 61 vsl 17 128 1 20 0 1 empty empty empty 0 -9 0 10 #e4e4e4 #4d4d4d #373737 1611 1;
#X floatatom 1628 214 5 0 0 0 - - - 12;
#X obj 1451 604 *~;
#X obj 1581 604 *~;
#X obj 1451 727 expr~ sin($v1);
#X obj 1581 727 expr~ sin($v1);
#X obj 1451 641 *~ 0.3;
#X obj 1581 641 *~ 0.3;
#X obj 240 474 *~ 2;
#X msg 1630 19 2;
#X obj 1451 214 *~ 7;
#X obj 240 684 *~;
#X obj 370 684 *~;
#X obj 846 684 *~;
#X obj 976 684 *~;
#X obj 1451 684 *~;
#X obj 1581 684 *~;
#X obj 192 444 vsl 17 128 0 1 0 1 empty empty empty 0 -9 0 10 #e4e4e4 #4d4d4d #373737 12700 1;
#X floatatom 188 604 5 0 0 0 - - - 12;
#X obj 188 641 *~;
#X obj 805 444 vsl 17 128 0 1 0 1 empty empty empty 0 -9 0 10 #e4e4e4 #4d4d4d #373737 7678 1;
#X floatatom 801 604 5 0 0 0 - - - 12;
#X obj 801 641 *~;
#X obj 1402 444 vsl 17 128 0 1 0 1 empty empty empty 0 -9 0 10 #e4e4e4 #4d4d4d #373737 1989 1;
#X floatatom 1398 604 5 0 0 0 - - - 12;
#X obj 1398 641 *~;
#X obj 1526 124 knob 50 1 20 0 7 empty empty #E4E4E4 #B7B7B7 #4D4D4D 1 0 20 1 1 270 0 0 1;
#X floatatom 1526 180 5 0 0 0 - - - 12;
#X obj 846 474 *~ 3;
#X obj 315 542 expr~ $v1*$v2+(1-$v2);
#X obj 513 542 expr~ $v1*$v2+(1-$v2);
#X obj 701 364 vsl 17 128 0 1 0 1 empty empty empty 0 -9 0 10 #e4e4e4 #4d4d4d #373737 4555 1;
#X floatatom 697 511 5 0 0 0 - - - 12;
#X obj 1309 362 vsl 17 128 0 1 0 1 empty empty empty 0 -9 0 10 #e4e4e4 #4d4d4d #373737 6553 1;
#X floatatom 1305 511 5 0 0 0 - - - 12;
#X obj 921 542 expr~ $v1*$v2+(1-$v2);
#X obj 1119 542 expr~ $v1*$v2+(1-$v2);
#X obj 1920 364 vsl 17 128 0 1 0 1 empty empty empty 0 -9 0 10 #e4e4e4 #4d4d4d #373737 12700 1;
#X floatatom 1916 511 5 0 0 0 - - - 12;
#X obj 1526 542 expr~ $v1*$v2+(1-$v2);
#X obj 1724 542 expr~ $v1*$v2+(1-$v2);
#X obj 1845 474 osc~;
#X obj 1845 440 *~ 12.7;
#X obj 858 251 knob 50 1 5 0 3 empty empty #E4E4E4 #B7B7B7 #4D4D4D 1 0 5 1 1 270 0 0 1;
#X floatatom 858 323 5 0 0 0 - - - 12;
#X obj 252 251 knob 50 1 3 0 2 empty empty #E4E4E4 #B7B7B7 #4D4D4D 1 0 3 1 1 270 0 0 1;
#X floatatom 252 323 5 0 0 0 - - - 12;
#X obj 315 360 loadbang;
#X obj 513 360 loadbang;
#X obj 921 360 loadbang;
#X obj 1119 360 loadbang;
#X obj 1526 360 loadbang;
#X obj 1724 360 loadbang;
#X obj 106 216 loadbang;
#X obj 252 216 loadbang;
#X obj 858 216 loadbang;
#X obj 1526 88 loadbang;
#X msg 1724 396 0.03;
#X msg 1526 396 0.04;
#X connect 1 0 50 0;
#X connect 2 0 51 0;
#X connect 3 0 2 1;
#X connect 3 0 1 1;
#X connect 4 0 5 0;
#X connect 4 0 11 0;
#X connect 5 0 55 0;
#X connect 6 0 15 0;
#X connect 7 0 15 0;
#X connect 8 0 15 0;
#X connect 9 0 10 0;
#X connect 10 0 1 0;
#X connect 11 0 56 0;
#X connect 12 0 8 0;
#X connect 13 0 7 0;
#X connect 14 0 6 0;
#X connect 15 0 108 0;
#X connect 16 0 14 0;
#X connect 16 0 13 0;
#X connect 16 0 12 0;
#X connect 17 0 18 0;
#X connect 18 0 2 0;
#X connect 19 0 25 0;
#X connect 20 0 25 0;
#X connect 21 0 25 0;
#X connect 22 0 21 0;
#X connect 23 0 20 0;
#X connect 24 0 19 0;
#X connect 25 0 109 0;
#X connect 26 0 24 0;
#X connect 26 0 23 0;
#X connect 26 0 22 0;
#X connect 27 0 28 0;
#X connect 27 0 32 0;
#X connect 28 0 57 0;
#X connect 29 0 36 0;
#X connect 30 0 36 0;
#X connect 31 0 36 0;
#X connect 32 0 58 0;
#X connect 33 0 31 0;
#X connect 34 0 30 0;
#X connect 35 0 29 0;
#X connect 36 0 114 0;
#X connect 37 0 43 0;
#X connect 38 0 43 0;
#X connect 39 0 43 0;
#X connect 40 0 39 0;
#X connect 41 0 38 0;
#X connect 42 0 37 0;
#X connect 43 0 115 0;
#X connect 44 0 35 0;
#X connect 44 0 34 0;
#X connect 44 0 33 0;
#X connect 45 0 42 0;
#X connect 45 0 41 0;
#X connect 45 0 40 0;
#X connect 46 0 10 0;
#X connect 47 0 18 0;
#X connect 48 0 59 0;
#X connect 49 0 48 0;
#X connect 50 0 0 0;
#X connect 51 0 0 1;
#X connect 53 0 87 0;
#X connect 54 0 107 0;
#X connect 55 0 90 0;
#X connect 56 0 91 0;
#X connect 57 0 92 0;
#X connect 58 0 93 0;
#X connect 59 0 52 0;
#X connect 60 0 81 0;
#X connect 60 0 82 0;
#X connect 61 0 67 0;
#X connect 62 0 67 0;
#X connect 63 0 67 0;
#X connect 64 0 63 0;
#X connect 65 0 62 0;
#X connect 66 0 61 0;
#X connect 67 0 118 0;
#X connect 68 0 72 0;
#X connect 69 0 72 0;
#X connect 70 0 69 0;
#X connect 71 0 68 0;
#X connect 72 0 119 0;
#X connect 73 0 60 0;
#X connect 74 0 89 0;
#X connect 75 0 76 0;
#X connect 76 0 73 1;
#X connect 77 0 73 0;
#X connect 78 0 77 0;
#X connect 79 0 80 0;
#X connect 80 0 78 1;
#X connect 81 0 85 0;
#X connect 82 0 86 0;
#X connect 83 0 10 0;
#X connect 84 0 18 0;
#X connect 85 0 94 0;
#X connect 86 0 95 0;
#X connect 87 0 4 0;
#X connect 88 0 79 0;
#X connect 89 0 60 0;
#X connect 89 0 78 0;
#X connect 90 0 9 0;
#X connect 91 0 17 0;
#X connect 92 0 46 0;
#X connect 93 0 47 0;
#X connect 94 0 83 0;
#X connect 95 0 84 0;
#X connect 96 0 97 0;
#X connect 97 0 98 0;
#X connect 97 0 98 1;
#X connect 98 0 90 1;
#X connect 98 0 91 1;
#X connect 99 0 100 0;
#X connect 100 0 101 0;
#X connect 100 0 101 1;
#X connect 101 0 92 1;
#X connect 101 0 93 1;
#X connect 102 0 103 0;
#X connect 103 0 104 0;
#X connect 103 0 104 1;
#X connect 104 0 94 1;
#X connect 104 0 95 1;
#X connect 105 0 106 0;
#X connect 106 0 89 1;
#X connect 107 0 27 0;
#X connect 108 0 5 1;
#X connect 109 0 11 1;
#X connect 110 0 111 0;
#X connect 111 0 109 1;
#X connect 111 0 108 1;
#X connect 112 0 113 0;
#X connect 113 0 115 1;
#X connect 113 0 114 1;
#X connect 114 0 28 1;
#X connect 115 0 32 1;
#X connect 116 0 117 0;
#X connect 117 0 119 1;
#X connect 117 0 118 1;
#X connect 118 0 81 1;
#X connect 119 0 82 1;
#X connect 120 0 72 0;
#X connect 121 0 120 0;
#X connect 122 0 123 0;
#X connect 123 0 107 1;
#X connect 124 0 125 0;
#X connect 125 0 87 1;
#X connect 126 0 16 0;
#X connect 127 0 26 0;
#X connect 128 0 44 0;
#X connect 129 0 45 0;
#X connect 130 0 137 0;
#X connect 131 0 136 0;
#X connect 132 0 49 0;
#X connect 133 0 124 0;
#X connect 134 0 122 0;
#X connect 135 0 105 0;
#X connect 136 0 71 0;
#X connect 136 0 70 0;
#X connect 136 0 121 0;
#X connect 137 0 66 0;
#X connect 137 0 65 0;
#X connect 137 0 64 0;
