#N canvas 704 20 939 890 12;
#X obj 150 791 dac~;
#X obj 150 759 *~ 0.1;
#X obj 150 466 expr~ $v1 > 0.5;
#X obj 150 234 expr~ $v1 > 0.5;
#X obj 150 354 mtof~;
#X obj 150 321 expr~ ($v1*$f2+$f3)*12;
#X obj 370 61 vsl 17 128 0 2 0 1 empty empty empty 0 -9 0 10 #e4e4e4 #4c4c4c #343434 5294 1;
#X obj 418 61 vsl 17 128 1 8 0 1 empty empty empty 0 -9 0 10 #e4e4e4 #4c4c4c #343434 9296 1;
#X obj 150 433 phasor~;
#X obj 154 61 vsl 17 128 1 40 1 1 empty empty empty 0 -9 0 10 #e4e4e4 #4c4c4c #343434 7916 1;
#X obj 150 204 phasor~;
#X obj 552 457 expr~ $v1 > 0.5;
#X obj 552 234 expr~ $v1 > 0.5;
#X obj 552 354 mtof~;
#X obj 552 321 expr~ ($v1*$f2+$f3)*12;
#X obj 772 61 vsl 17 128 0 2 0 1 empty empty empty 0 -9 0 10 #e4e4e4 #4c4c4c #343434 6391 1;
#X obj 815 61 vsl 17 128 1 8 0 1 empty empty empty 0 -9 0 10 #e4e4e4 #4c4c4c #343434 8415 1;
#X obj 552 433 phasor~;
#X obj 556 61 vsl 17 128 1 40 1 1 empty empty empty 0 -9 0 10 #e4e4e4 #4c4c4c #343434 2496 1;
#X obj 552 204 phasor~;
#X obj 150 624 *~;
#X text 145 29 LFO1;
#X text 547 29 LFO2;
#X text 407 28 BIAS1;
#X text 359 28 RNG1;
#X text 760 28 RNG2;
#X text 802 28 BIAS2;
#X obj 150 732 *~;
#X obj 185 679 tgl 25 1 empty empty empty 17 7 0 10 #e4e4e4 #4c4c4c #343434 1 1;
#X obj 150 572 expr~ $v1 != $v2;
#X obj 341 572 expr~ $v1 >= $v2;
#X connect 1 0 0 0;
#X connect 1 0 0 1;
#X connect 2 0 29 0;
#X connect 3 0 5 0;
#X connect 3 0 30 0;
#X connect 4 0 8 0;
#X connect 5 0 4 0;
#X connect 6 0 5 1;
#X connect 7 0 5 2;
#X connect 8 0 2 0;
#X connect 9 0 10 0;
#X connect 10 0 3 0;
#X connect 11 0 29 1;
#X connect 12 0 14 0;
#X connect 12 0 30 1;
#X connect 13 0 17 0;
#X connect 14 0 13 0;
#X connect 15 0 14 1;
#X connect 16 0 14 2;
#X connect 17 0 11 0;
#X connect 18 0 19 0;
#X connect 19 0 12 0;
#X connect 20 0 27 0;
#X connect 27 0 1 0;
#X connect 28 0 27 1;
#X connect 29 0 20 0;
#X connect 30 0 20 1;
