#N canvas 827 239 527 327 12;
#X obj 504 854 dac~;
#X obj 252 654 *~;
#X obj 197 597 tgl 25 0 empty empty empty 17 7 0 10 #e4e4e4 #4d4d4d #373737 0 1;
#X obj 255 101 vsl 20 128 8 8000 1 1 empty empty empty 0 -9 0 10 #e4e4e4 #4d4d4d #373737 2729 1;
#X floatatom 252 247 5 0 0 0 - - - 12;
#X obj 252 356 osc~;
#X obj 413 356 osc~;
#X obj 588 356 osc~;
#X obj 748 356 osc~;
#X obj 252 561 *~;
#X obj 413 561 *~;
#X obj 799 654 *~;
#X obj 197 399 perlin~ 2;
#X obj 390 399 perlin~ 2;
#X obj 303 561 *~;
#X obj 464 561 *~;
#X obj 588 561 *~;
#X obj 748 561 *~;
#X obj 639 561 *~;
#X obj 799 561 *~;
#X obj 275 460 perlin~ 2;
#X obj 468 460 perlin~ 2;
#X obj 588 399 perlin~ 2;
#X obj 818 399 perlin~ 2;
#X obj 716 460 perlin~ 2;
#X obj 876 460 perlin~ 2;
#X obj 413 310 *;
#X obj 588 310 *;
#X obj 748 310 *;
#X msg 426 173 2;
#X msg 601 173 3;
#X msg 761 173 5;
#X msg 801 189 6;
#X msg 839 213 7;
#X obj 748 232 t b;
#X obj 588 232 t b;
#X obj 413 232 t b;
#X msg 873 232 9;
#X msg 906 257 10;
#X msg 938 289 11;
#X msg 974 317 12;
#X obj 839 30 loadbang;
#X obj 1123 177 vsl 20 128 0 1 0 1 empty empty empty 0 -9 0 10 #e4e4e4 #4d4d4d #373737 4861 1;
#X obj 197 433 expr~ $v2+(1-$v2)*$v1;
#X obj 390 433 expr~ $v2+(1-$v2)*$v1;
#X obj 638 433 expr~ $v2+(1-$v2)*$v1;
#X obj 818 433 expr~ $v2+(1-$v2)*$v1;
#X obj 275 494 expr~ $v2+(1-$v2)*$v1;
#X obj 468 494 expr~ $v2+(1-$v2)*$v1;
#X obj 716 494 expr~ $v2+(1-$v2)*$v1;
#X obj 876 494 expr~ $v2+(1-$v2)*$v1;
#X floatatom 1120 324 5 0 0 0 - - - 12;
#X obj 62 198 vsl 20 128 0.2 8 0 1 empty empty empty 0 -9 0 10 #e4e4e4 #4d4d4d #373737 1990 1;
#X floatatom 59 355 5 0 0 0 - - - 12;
#X obj 252 725 tanh~;
#X text 282 98 OSC FRQ;
#X text 96 195 LFO FRQ;
#X text 1153 174 LFO AMP;
#X text 980 560 DIST;
#X obj 952 563 vsl 20 128 0.2 2 0 1 empty empty empty 0 -9 0 10 #e4e4e4 #4d4d4d #373737 2691 1;
#X obj 799 725 tanh~;
#X obj 252 697 *~;
#X obj 252 754 /~;
#X obj 799 697 *~;
#X obj 799 754 /~;
#X floatatom 949 706 5 0 0 0 - - - 12;
#X obj 799 802 *~ 0.4;
#X obj 252 802 *~ 0.4;
#X connect 1 0 61 0;
#X connect 2 0 1 1;
#X connect 2 0 11 1;
#X connect 3 0 4 0;
#X connect 4 0 5 0;
#X connect 4 0 26 0;
#X connect 4 0 27 0;
#X connect 4 0 28 0;
#X connect 5 0 9 0;
#X connect 5 0 14 0;
#X connect 6 0 10 0;
#X connect 6 0 15 0;
#X connect 7 0 16 0;
#X connect 7 0 18 0;
#X connect 8 0 17 0;
#X connect 8 0 19 0;
#X connect 9 0 1 0;
#X connect 10 0 1 0;
#X connect 11 0 63 0;
#X connect 12 0 43 0;
#X connect 13 0 44 0;
#X connect 14 0 11 0;
#X connect 15 0 11 0;
#X connect 16 0 1 0;
#X connect 17 0 1 0;
#X connect 18 0 11 0;
#X connect 19 0 11 0;
#X connect 20 0 47 0;
#X connect 21 0 48 0;
#X connect 22 0 45 0;
#X connect 23 0 46 0;
#X connect 24 0 49 0;
#X connect 25 0 50 0;
#X connect 26 0 6 0;
#X connect 27 0 7 0;
#X connect 28 0 8 0;
#X connect 29 0 26 1;
#X connect 29 0 36 0;
#X connect 30 0 27 1;
#X connect 30 0 35 0;
#X connect 31 0 28 1;
#X connect 31 0 34 0;
#X connect 32 0 28 1;
#X connect 32 0 34 0;
#X connect 33 0 28 1;
#X connect 33 0 34 0;
#X connect 34 0 28 0;
#X connect 35 0 27 0;
#X connect 36 0 26 0;
#X connect 37 0 34 0;
#X connect 37 0 28 1;
#X connect 38 0 34 0;
#X connect 38 0 28 1;
#X connect 39 0 34 0;
#X connect 39 0 28 1;
#X connect 40 0 34 0;
#X connect 40 0 28 1;
#X connect 41 0 29 0;
#X connect 41 0 30 0;
#X connect 41 0 37 0;
#X connect 41 0 3 0;
#X connect 41 0 52 0;
#X connect 41 0 42 0;
#X connect 41 0 59 0;
#X connect 42 0 51 0;
#X connect 43 0 9 1;
#X connect 44 0 10 1;
#X connect 45 0 16 1;
#X connect 46 0 17 1;
#X connect 47 0 14 1;
#X connect 48 0 15 1;
#X connect 49 0 18 1;
#X connect 50 0 19 1;
#X connect 51 0 43 1;
#X connect 51 0 50 1;
#X connect 51 0 49 1;
#X connect 51 0 48 1;
#X connect 51 0 47 1;
#X connect 51 0 46 1;
#X connect 51 0 45 1;
#X connect 51 0 44 1;
#X connect 52 0 53 0;
#X connect 53 0 12 0;
#X connect 53 0 13 0;
#X connect 53 0 22 0;
#X connect 53 0 23 0;
#X connect 53 0 20 0;
#X connect 53 0 21 0;
#X connect 53 0 24 0;
#X connect 53 0 25 0;
#X connect 54 0 62 0;
#X connect 59 0 65 0;
#X connect 60 0 64 0;
#X connect 61 0 54 0;
#X connect 62 0 67 0;
#X connect 63 0 60 0;
#X connect 64 0 66 0;
#X connect 65 0 63 1;
#X connect 65 0 61 1;
#X connect 65 0 64 1;
#X connect 65 0 62 1;
#X connect 66 0 0 1;
#X connect 67 0 0 0;
