#N canvas 827 239 527 327 12;
#X obj 195 227 phasor~;
#X obj 199 40 vsl 17 128 5 1000 1 1 empty empty empty 0 -9 0 10 #e4e4e4 #4d4d4d #373737 8437 1;
#X floatatom 195 188 5 0 0 0 - - - 12;
#X obj 195 645 dac~;
#X obj 195 553 hip~ 5;
#X obj 396 121 knob 50 0.01 1 0 0.8 empty empty #E4E4E4 #B7B7B7 #4D4D4D 1 0 0 0 1 270 0 0 0.01;
#X obj 195 510 *~;
#X obj 236 472 tgl 25 0 empty empty empty 17 7 0 10 #e4e4e4 #4d4d4d #373737 0 1;
#X obj 334 486 scope~ 564 100 1 3 1024 -1 1 0 0 0 0 77 77 77 228 228 228 183 183 183 0 empty;
#X floatatom 396 184 5 0 0 0 - - - 12;
#X obj 314 121 knob 50 1 25 0 8 empty empty #E4E4E4 #B7B7B7 #4D4D4D 1 0 25 1 1 270 0 0 1;
#X floatatom 314 184 5 0 0 0 - - - 12;
#X obj 314 62 t b;
#X obj 383 320 expr~ 1-floor($v1)/max($i2 \, 1);
#X obj 484 121 knob 50 0 1 0 0.5 empty empty #E4E4E4 #B7B7B7 #4D4D4D 1 0 0 0 1 270 0 0 0.001;
#X floatatom 484 184 5 0 0 0 - - - 12;
#X obj 195 384 expr~ sin(3.1415926535*$v1)*$v2;
#X obj 383 351 expr~ $v1*(1-$f2)+$f2;
#X obj 195 421 *~;
#X obj 195 593 *~ 0.2;
#X obj 195 267 expr~ min($v1*$i2/max($f3 \, 0.01) \, $i2);
#X text 543 350 step;
#X text 101 266 scaled time;
#X text 127 383 sin osc;
#X text 138 420 sin^2;
#X text 192 9 freq;
#X text 314 95 n_pulses;
#X text 396 95 ratio;
#X text 484 95 decay;
#X connect 0 0 20 0;
#X connect 1 0 2 0;
#X connect 1 0 12 0;
#X connect 2 0 0 0;
#X connect 4 0 19 0;
#X connect 5 0 9 0;
#X connect 6 0 4 0;
#X connect 7 0 6 1;
#X connect 9 0 20 2;
#X connect 10 0 11 0;
#X connect 11 0 13 1;
#X connect 11 0 20 1;
#X connect 12 0 10 0;
#X connect 12 0 5 0;
#X connect 12 0 14 0;
#X connect 13 0 17 0;
#X connect 14 0 15 0;
#X connect 15 0 17 1;
#X connect 16 0 18 0;
#X connect 16 0 18 1;
#X connect 17 0 16 1;
#X connect 18 0 6 0;
#X connect 18 0 8 0;
#X connect 19 0 3 0;
#X connect 19 0 3 1;
#X connect 20 0 13 0;
#X connect 20 0 16 0;
