#N canvas 827 239 734 565 12;
#X obj 245 1446 dac~;
#X obj 245 790 saw~;
#X obj 245 1410 hip~ 5;
#X obj 327 1376 vsl 17 128 0 1 0 1 empty empty empty 0 -9 0 10 #e4e4e4 #4d4d4d #373737 3246 1;
#X obj 324 1521 *;
#X obj 245 600 knob 50 40 800 2 280 empty empty #E4E4E4 #B7B7B7 #4D4D4D 1 0 0 0 1 270 0 0 40 empty empty 0 12 6 -15 0 1 0 0;
#X floatatom 245 661 5 0 0 0 - - - 0;
#X obj 375 1176 *~ -1;
#X obj 640 1176 *~ -1;
#X obj 245 276 knob 50 10 20 0 16 empty empty #E4E4E4 #B7B7B7 #4D4D4D 1 0 0 0 1 270 0 0 10 empty empty 0 12 6 -15 0 1 0 0;
#X floatatom 245 337 5 0 0 0 - - - 0;
#X obj 245 369 expr 34000/(4*$f1);
#X obj 501 416 * 3;
#X obj 583 416 * 5;
#X obj 652 416 * 7;
#X obj 701 416 * 9;
#X obj 507 1176 *~ 1;
#X obj 776 1176 *~ 1;
#X obj 245 1176 *~ 1;
#X obj 245 1374 *~ 0;
#X obj 753 482 s f6;
#X obj 753 416 * 11;
#X obj 804 482 s f7;
#X obj 804 416 * 13;
#X obj 856 416 * 15;
#X obj 856 482 s f8;
#X obj 908 482 s f9;
#X obj 908 416 * 17;
#X obj 1036 1176 *~ 1;
#X obj 1296 1176 *~ 1;
#X obj 1166 1176 *~ -1;
#X obj 245 889 *~;
#X obj 512 784 lowpass~ 8000 1;
#X obj 512 889 *~;
#X obj 512 752 noise~;
#X obj 245 566 r f0;
#X obj 245 233 r vtlen;
#X obj 351 566 r pulseLpf;
#X obj 555 566 r breathLpf;
#X obj 636 566 r breathHpf;
#X obj 906 1176 *~ 0;
#X floatatom 555 600 6 0 0 0 - - - 12;
#X floatatom 636 600 5 0 0 0 - - - 0;
#X floatatom 886 600 5 0 0 0 - - - 0;
#X obj 886 566 r breathRatio;
#X obj 245 820 lowpass~ 3500 1;
#X obj 245 849 lowpass~ 3500 1;
#X text 260 1565 voice definition;
#X obj 512 820 highpass~ 500 1;
#X text 556 1565 vowel;
#X obj 245 105 vline~;
#X obj 878 820 *~;
#X obj 770 820 *~;
#X obj 770 566 r~ pulseGain;
#X obj 245 137 s~ pulseGain;
#X obj 245 1240 *~ 1;
#X obj 260 1595 loadbang;
#X obj 245 73 r pulseGainLine;
#X text 556 1594 /a/;
#X text 901 1594 /i/;
#X text 1249 1594 /u/;
#X text 1600 1594 /e/;
#X text 1945 1594 /o/;
#X obj 245 1307 *~ 1;
#X text 952 1175 <- spec dip;
#X text 507 1745 /s/;
#X obj 411 369 r~ f1shift;
#X obj 411 446 *~;
#X obj 411 482 s~ f1;
#X obj 490 482 s~ f2;
#X obj 572 482 s~ f3;
#X obj 285 1109 r~ f1;
#X obj 423 1109 r~ f2;
#X obj 556 1109 r~ f3;
#X obj 954 1109 r f6;
#X obj 1082 1109 r f7;
#X obj 1214 1109 r f8;
#X obj 1344 1109 r f9;
#X obj 490 369 r~ f2shift;
#X obj 572 369 r~ f3shift;
#X obj 652 482 s f4;
#X obj 701 482 s f5;
#X obj 688 1109 r f4;
#X obj 824 1109 r f5;
#X obj 490 446 *~;
#X obj 572 446 *~;
#X obj 1259 105 vline~;
#X obj 1259 73 r f1shiftLine;
#X obj 1259 137 s~ f1shift;
#X obj 1361 105 vline~;
#X obj 1361 73 r f2shiftLine;
#X obj 1361 137 s~ f2shift;
#X obj 1467 105 vline~;
#X obj 1467 73 r f3shiftLine;
#X obj 1467 137 s~ f3shift;
#X text 85 72 parameter animation;
#X text 29 232 formant frequency calculation;
#X text 130 1029 formant filter;
#X text 168 1373 output;
#X obj 528 105 vline~;
#X obj 528 73 r unvoicedGainLine;
#X obj 528 137 s~ unvoicedGain;
#X obj 1333 566 r~ unvoicedGain;
#X text 106 565 source synthesis;
#X obj 245 969 s~ voiced;
#X obj 245 1030 r~ voiced;
#X obj 324 1269 r~ unvoiced;
#X obj 1033 921 s~ unvoiced;
#X obj 1033 889 *~;
#X obj 1033 752 noise~;
#X obj 1191 566 r~ unvoicedHpf;
#X obj 1078 566 r~ unvoicedLpf;
#X obj 1033 784 lowpass~ 14000 1;
#X obj 1033 820 highpass~ 6000 1;
#X obj 669 105 vline~;
#X obj 669 73 r unvoicedLpfLine;
#X obj 669 137 s~ unvoicedLpf;
#X obj 799 105 vline~;
#X obj 799 73 r unvoicedHpfLine;
#X obj 799 137 s~ unvoicedHpf;
#X obj 1166 1145 resonant~ 4500 8;
#X obj 1296 1145 resonant~ 4500 7;
#X text 507 1899 /sh/;
#X text 507 2937 /f/;
#X msg 556 1746 \; f1shiftLine 1.1 \, 1.59 40 100 \; f2shiftLine 0.85 \, 0.76 100 100 \; f3shiftLine 1.3 \, 1.25 100 100 \; unvoicedLpfLine 14000 \; unvoicedHpfLine 6500 \; unvoicedGainLine 0 \, 0.4 50 \, 0.3 60 50 \, 0 20 100 \; pulseGainLine 0 \, 1 20 100 \, 0.7 220 140 \, 0 20 360, f 44;
#X msg 901 1746 \; f1shiftLine 1.1 \, 0.68 40 100 \; f2shiftLine 1 \, 1.58 100 100 \; f3shiftLine 1.3 \, 1.3 100 100 \; unvoicedLpfLine 14000 \; unvoicedHpfLine 6500 \; unvoicedGainLine 0 \, 0.4 50 \, 0.3 60 50 \, 0 20 100 \; pulseGainLine 0 \, 1 20 100 \, 0.7 220 140 \, 0 20 360, f 44;
#X msg 1249 1746 \; f1shiftLine 1.1 \, 0.7 40 100 \; f2shiftLine 0.85 \, 1 100 100 \; f3shiftLine 1 \, 1 100 100 \; unvoicedLpfLine 14000 \; unvoicedHpfLine 6500 \; unvoicedGainLine 0 \, 0.4 50 \, 0.3 60 50 \, 0 20 100 \; pulseGainLine 0 \, 1 20 100 \, 0.7 220 140 \, 0 20 360, f 44;
#X msg 1600 1746 \; f1shiftLine 1.1 \, 1.2 40 100 \; f2shiftLine 1.1 \, 1.3 100 100 \; f3shiftLine 1.3 \, 1.2 100 100 \; unvoicedLpfLine 14000 \; unvoicedHpfLine 6500 \; unvoicedGainLine 0 \, 0.4 50 \, 0.3 60 50 \, 0 20 100 \; pulseGainLine 0 \, 1 20 100 \, 0.7 220 140 \, 0 20 360, f 44;
#X msg 1600 1900 \; f1shiftLine 0.7 \, 1.2 40 100 \; f2shiftLine 1.35 \, 1.3 100 100 \; f3shiftLine 1 \, 1.2 100 100 \; unvoicedLpfLine 12000 \; unvoicedHpfLine 3500 \; unvoicedGainLine 0 \, 0.4 50 \, 0.3 60 50 \, 0 20 110 \; pulseGainLine 0 \, 1 20 100 \, 0.7 220 140 \, 0 20 360, f 44;
#X msg 2343 1629 \; f1shiftLine 1 \; f2shiftLine 1 \; f3shiftLine 1 \; pulseGainLine 0 \, 1 15 \, 0.7 225 15 \, 0 20 240, f 37;
#X obj 507 1145 resonant~ 2500 20;
#X obj 1036 1145 resonant~ 4500 9;
#X obj 640 1145 resonant~ 3500 20;
#X obj 776 1145 resonant~ 4500 15;
#X obj 906 1145 resonant~ 4500 12;
#X text 507 2798 /hy/;
#X obj 781 752 expr~ 1-$v1;
#X obj 512 849 *~ 0.5;
#X msg 556 1900 \; f1shiftLine 1.1 \, 1.59 40 100 \; f2shiftLine 1.2 \, 0.76 100 100 \; f3shiftLine 1 \, 1.25 100 100 \; unvoicedLpfLine 12000 \; unvoicedHpfLine 3500 \; unvoicedGainLine 0 \, 0.5 50 \, 0.3 60 50 \, 0 20 110 \; pulseGainLine 0 \, 1 20 100 \, 0.7 220 140 \, 0 20 360, f 44;
#X msg 556 2938 \; f1shiftLine 0.9 \, 1.59 40 100 \; f2shiftLine 0.7 \, 0.76 120 100 \; f3shiftLine 1 \, 1.25 120 100 \; unvoicedLpfLine 9000 \; unvoicedHpfLine 2400 \; unvoicedGainLine 0 \, 0.25 50 \, 0.2 60 50 \, 0 20 110 \; pulseGainLine 0 \, 1 20 100 \, 0.7 220 140 \, 0 20 360, f 44;
#X text 507 4161 /p/;
#X text 507 4419 /t/;
#X text 507 4548 /k/;
#X obj 245 743 *~;
#X obj 304 700 expr~ pow(2 \, 4*$v1/1200);
#X obj 304 661 osc~ 6;
#X text 507 2651 /h/;
#X text 507 3433 /b/;
#X text 507 3706 /d/;
#X text 507 3836 /g/;
#X text 507 4844 /n/;
#X text 507 5082 /m/;
#X text 507 5336 /r/;
#X text 507 2051 /ch/;
#X text 507 2193 /ts/;
#X text 507 3169 /y/;
#X text 507 3268 /w/;
#X obj 324 1343 loadbang;
#X msg 1945 2938 \; f1shiftLine 0.9 \, 0.95 40 100 \; f2shiftLine 0.6 \, 0.54 120 100 \; f3shiftLine 1 \, 1.25 120 100 \; unvoicedLpfLine 9000 \; unvoicedHpfLine 2400 \; unvoicedGainLine 0 \, 0.25 50 \, 0.2 60 50 \, 0 20 110 \; pulseGainLine 0 \, 1 20 100 \, 0.7 220 140 \, 0 20 360, f 44;
#X msg 1945 1900 \; f1shiftLine 0.7 \, 0.95 40 100 \; f2shiftLine 1.2 \, 0.54 100 100 \; f3shiftLine 0.9 \, 1.25 90 100 \; unvoicedLpfLine 12000 \; unvoicedHpfLine 3500 \; unvoicedGainLine 0 \, 0.4 50 \, 0.3 60 50 \, 0 20 110 \; pulseGainLine 0 \, 1 20 100 \, 0.7 220 140 \, 0 20 360, f 44;
#X msg 556 3170 \; f1shiftLine 0.7 \, 1.59 40 10 \; f2shiftLine 1.5 \, 0.76 70 10 \; f3shiftLine 1.3 \, 1.25 40 10 \; pulseGainLine 0 \, 1 30 \, 0.7 220 60 \, 0 20 300;
#X msg 1249 1900 \; f1shiftLine 0.6 \, 0.7 40 100 \; f2shiftLine 1.2 \, 1 100 100 \; f3shiftLine 1 \, 1 100 100 \; unvoicedLpfLine 12000 \; unvoicedHpfLine 3500 \; unvoicedGainLine 0 \, 0.4 50 \, 0.3 60 50 \, 0 20 110 \; pulseGainLine 0 \, 1 20 100 \, 0.7 220 140 \, 0 20 360, f 44;
#X msg 556 2660 \; f1shiftLine 1.59 \; f2shiftLine 0.76 \; f3shiftLine 1.25 \; unvoicedLpfLine 3000 \; unvoicedHpfLine 1000 \; unvoicedGainLine 0 \, 0.4 50 \, 0.4 60 50 \, 0 20 110 \; pulseGainLine 0 \, 1 20 100 \, 0.7 220 140 \, 0 20 360, f 44;
#X msg 1249 3170 \; f1shiftLine 0.7 \, 0.7 40 10 \; f2shiftLine 1.5 \, 1 70 10 \; f3shiftLine 1.3 \, 1 40 10 \; pulseGainLine 0 \, 1 20 \, 0.7 200 20 \, 0 20 300;
#X msg 1600 2938 \; f1shiftLine 0.9 \, 1.2 40 100 \; f2shiftLine 0.8 \, 1.3 80 100 \; f3shiftLine 1.1 \, 1.2 80 100 \; unvoicedLpfLine 9000 \; unvoicedHpfLine 2400 \; unvoicedGainLine 0 \, 0.25 50 \, 0.2 60 50 \, 0 20 110 \; pulseGainLine 0 \, 1 20 100 \, 0.7 220 140 \, 0 20 360, f 44;
#X msg 901 2938 \; f1shiftLine 0.9 \, 0.68 40 100 \; f2shiftLine 0.7 \, 1.58 70 100 \; f3shiftLine 1 \, 1.3 70 100 \; unvoicedLpfLine 9000 \; unvoicedHpfLine 2400 \; unvoicedGainLine 0 \, 0.25 50 \, 0.2 60 50 \, 0 20 110 \; pulseGainLine 0 \, 1 20 100 \, 0.7 220 140 \, 0 20 360, f 44;
#X msg 901 2799 \; f1shiftLine 0.7 \, 0.68 40 80 \; f2shiftLine 1.7 \, 1.58 80 80 \; f3shiftLine 1 \, 1.3 80 80 \; unvoicedLpfLine 5000 \; unvoicedHpfLine 2600 \; unvoicedGainLine 0 \, 0.4 50 \, 0.3 60 50 \, 0 20 110 \; pulseGainLine 0 \, 1 20 100 \, 0.7 220 140 \, 0 20 360, f 44;
#X msg 556 2799 \; f1shiftLine 0.7 \, 1.59 40 100 \; f2shiftLine 1.5 \, 0.76 90 100 \; f3shiftLine 1.1 \, 1.25 90 100 \; unvoicedLpfLine 5000 \; unvoicedHpfLine 3000 \; unvoicedGainLine 0 \, 0.4 50 \, 0.3 60 50 \, 0 20 110 \; pulseGainLine 0 \, 1 20 100 \, 0.7 220 140 \, 0 20 360, f 44;
#X msg 1249 2799 \; f1shiftLine 0.7 \, 0.7 40 80 \; f2shiftLine 1.7 \, 1 80 80 \; f3shiftLine 1 \, 1 80 80 \; unvoicedLpfLine 5000 \; unvoicedHpfLine 3000 \; unvoicedGainLine 0 \, 0.4 50 \, 0.3 60 50 \, 0 20 110 \; pulseGainLine 0 \, 1 20 100 \, 0.7 220 140 \, 0 20 360, f 44;
#X msg 1600 2799 \; f1shiftLine 0.7 \, 1.2 40 100 \; f2shiftLine 1.7 \, 1.3 80 100 \; f3shiftLine 1 \, 1.2 80 100 \; unvoicedLpfLine 5000 \; unvoicedHpfLine 3000 \; unvoicedGainLine 0 \, 0.4 50 \, 0.3 60 50 \, 0 20 110 \; pulseGainLine 0 \, 1 20 100 \, 0.7 220 140 \, 0 20 360, f 44;
#X msg 1600 2660 \; f1shiftLine 1.2 \; f2shiftLine 1.3 \; f3shiftLine 1.2 \; unvoicedLpfLine 4000 \; unvoicedHpfLine 800 \; unvoicedGainLine 0 \, 0.4 50 \, 0.4 60 50 \, 0 20 110 \; pulseGainLine 0 \, 1 20 100 \, 0.7 220 140 \, 0 20 360, f 44;
#X obj 973 105 vline~;
#X obj 1092 105 vline~;
#X obj 973 73 r burstGainLine;
#X obj 973 137 s~ burstGain;
#X obj 1495 889 *~;
#X obj 1495 752 noise~;
#X obj 1649 566 r~ burstGain;
#X obj 1092 73 r burstFreqLine;
#X obj 1092 137 s~ burstFreq;
#X obj 1540 566 r~ burstFreq;
#X obj 1495 921 s~ burst;
#X obj 422 1269 r~ burst;
#X obj 1495 784 resonant~ 500 5;
#X msg 1249 2938 \; f1shiftLine 0.9 \, 0.7 40 100 \; f2shiftLine 1 \, 1 120 100 \; f3shiftLine 1 \, 1 120 100 \; unvoicedLpfLine 6000 \; unvoicedHpfLine 2400 \; unvoicedGainLine 0 \, 0.25 50 \, 0.2 60 50 \, 0 20 110 \; pulseGainLine 0 \, 1 20 100 \, 0.7 220 140 \, 0 20 360, f 44;
#X msg 556 1629 \; f1shiftLine 1.59 \; f2shiftLine 0.76 \; f3shiftLine 1.25 \; pulseGainLine 0 \, 1 15 \, 0.7 225 15 \, 0 20 240, f 38;
#X msg 901 1629 \; f1shiftLine 0.68 \; f2shiftLine 1.58 \; f3shiftLine 1.3 \; pulseGainLine 0 \, 1 15 \, 0.7 225 15 \, 0 20 240, f 38;
#X msg 1249 1629 \; f1shiftLine 0.7 \; f2shiftLine 1 \; f3shiftLine 1 \; pulseGainLine 0 \, 1 15 \, 0.7 225 15 \, 0 20 240, f 38;
#X msg 1600 1629 \; f1shiftLine 1.2 \; f2shiftLine 1.3 \; f3shiftLine 1.2 \; pulseGainLine 0 \, 1 15 \, 0.7 225 15 \, 0 20 240, f 38;
#X obj 375 1145 resonant~ 1500 15;
#X text 507 3567 /by/;
#X msg 1945 2660 \; f1shiftLine 0.95 \; f2shiftLine 0.54 \; f3shiftLine 1.25 \; unvoicedLpfLine 3000 \; unvoicedHpfLine 500 \; unvoicedGainLine 0 \, 0.4 50 \, 0.4 60 50 \, 0 20 110 \; pulseGainLine 0 \, 1 20 100 \, 0.7 220 140 \, 0 20 360, f 44;
#X msg 556 3568 \; f1shiftLine 0.4 \, 1.59 60 0 \; f2shiftLine 0.7 \, 1.5 20 \, 0.76 90 20 \; f3shiftLine 0.8 \, 1.25 100 0 \; burstFreqLine 100 \; burstGainLine 2 \, 0 20 \; pulseGainLine 0 \, 1 15 \, 0.7 200 30 \, 0 20 300;
#X msg 1600 3568 \; f1shiftLine 0.8 \, 1.2 70 0 \; f2shiftLine 0.7 \, 1.5 30 \, 1.3 120 30 \; f3shiftLine 0.8 \, 1.2 100 0 \; burstFreqLine 100 \; burstGainLine 2 \, 0 20 \; pulseGainLine 0 \, 1 15 \, 0.7 200 30 \, 0 20 300;
#X msg 1249 3568 \; f1shiftLine 0.4 \, 0.7 70 0 \; f2shiftLine 0.7 \, 1.2 20 \, 0.9 90 30 \; f3shiftLine 0.8 \, 1 100 0 \; burstFreqLine 100 \; burstGainLine 2 \, 0 20 \; pulseGainLine 0 \, 1 15 \, 0.7 200 30 \, 0 20 300;
#X msg 1945 3568 \; f1shiftLine 0.5 \, 0.95 60 0 \; f2shiftLine 0.7 \, 1.1 20 \, 0.55 80 30 \; f3shiftLine 0.8 \, 1.1 100 0 \; burstFreqLine 100 \; burstGainLine 2 \, 0 20 \; pulseGainLine 0 \, 1 15 \, 0.7 200 30 \, 0 20 300;
#X msg 556 3434 \; f1shiftLine 0.6 \, 1.59 50 10 \; f2shiftLine 0.6 \, 0.76 50 10 \; f3shiftLine 1 \, 1.25 70 0 \; burstFreqLine 100 \; burstGainLine 2 \, 0 20 \; pulseGainLine 0 \, 1 20 \, 0.7 200 20 \, 0 20 300;
#X msg 556 4162 \; f1shiftLine 0.5 \, 1.59 50 0 \; f2shiftLine 0.5 \, 0.76 50 0 \; f3shiftLine 1 \, 1.25 70 0 \; burstFreqLine 300 \; burstGainLine 2 \, 0 20 \; pulseGainLine 0 \, 1 20 10 \, 0.7 220 60 \, 0 20 300;
#X msg 901 4291 \; f1shiftLine 0.3 \, 0.68 50 0 \; f2shiftLine 0.6 \, 1.58 50 0 \; f3shiftLine 1 \, 1.3 70 0 \; burstFreqLine 300 \; burstGainLine 2 \, 0 20 \; pulseGainLine 0 \, 1 20 10 \, 0.7 220 60 \, 0 20 300;
#X msg 1249 4162 \; f1shiftLine 0.3 \, 0.7 50 0 \; f2shiftLine 0.7 \, 0.9 50 0 \; f3shiftLine 1 \, 1 70 0 \; burstFreqLine 300 \; burstGainLine 2 \, 0 20 \; pulseGainLine 0 \, 1 20 10 \, 0.7 220 60 \, 0 20 300;
#X msg 1600 4162 \; f1shiftLine 0.3 \, 1.2 50 0 \; f2shiftLine 0.7 \, 1.3 50 0 \; f3shiftLine 1.1 \, 1.2 70 0 \; burstFreqLine 300 \; burstGainLine 2 \, 0 20 \; pulseGainLine 0 \, 1 20 10 \, 0.7 220 60 \, 0 20 300;
#X msg 1945 4162 \; f1shiftLine 0.3 \, 0.95 50 0 \; f2shiftLine 0.4 \, 0.55 50 0 \; f3shiftLine 1 \, 1.1 70 0 \; burstFreqLine 300 \; burstGainLine 2 \, 0 20 \; pulseGainLine 0 \, 1 20 10 \, 0.7 220 60 \, 0 20 300;
#X msg 901 3568 \; f1shiftLine 0.4 \, 0.68 50 10 \; f2shiftLine 0.9 \, 1.58 50 10 \; f3shiftLine 1 \, 1.3 70 0 \; burstFreqLine 100 \; burstGainLine 2 \, 0 20 \; pulseGainLine 0 \, 1 20 \, 0.7 200 20 \, 0 20 300;
#X msg 1600 3434 \; f1shiftLine 0.5 \, 1.2 50 10 \; f2shiftLine 0.9 \, 1.3 50 10 \; f3shiftLine 1 \, 1.2 70 0 \; burstFreqLine 100 \; burstGainLine 2 \, 0 20 \; pulseGainLine 0 \, 1 20 \, 0.7 200 20 \, 0 20 300;
#X msg 1600 3707 \; f1shiftLine 0.5 \, 1.2 60 5 \; f2shiftLine 1.2 \, 1.3 60 5 \; f3shiftLine 1.1 \, 1.2 90 0 \; burstFreqLine 1000 \; burstGainLine 0.8 \, 0 20 \; pulseGainLine 0 \, 1 20 \, 0.7 200 20 \, 0 20 300;
#X msg 1945 3707 \; f1shiftLine 0.3 \, 0.95 60 5 \; f2shiftLine 0.9 \, 0.55 60 5 \; f3shiftLine 1 \, 1.1 80 0 \; burstFreqLine 1000 \; burstGainLine 0.8 \, 0 20 \; pulseGainLine 0 \, 1 20 \, 0.7 200 20 \, 0 20 300;
#X msg 556 3837 \; f1shiftLine 0.5 \, 1.59 50 0 \; f2shiftLine 1.3 \, 0.76 40 0 \; f3shiftLine 0.8 \, 1.25 80 0 \; burstFreqLine 1000 \; burstGainLine 0.8 \, 0 2 \, 0.8 2 5 \, 0 2 15 \; pulseGainLine 0 \, 1 15 \, 0.7 200 20 \, 0 20 300;
#X msg 1249 4549 \; f1shiftLine 0.3 \, 0.7 50 0 \; f2shiftLine 1.2 \, 0.9 50 0 \; f3shiftLine 0.8 \, 1 80 0 \; burstFreqLine 1500 \; burstGainLine 0.8 \, 0 2 \, 0.8 2 5 \, 0 2 15 \; pulseGainLine 0 \, 1 20 18 \, 0.7 220 60 \, 0 20 300, f 44;
#X msg 1945 4549 \; f1shiftLine 0.3 \, 0.95 50 0 \; f2shiftLine 0.7 \, 0.55 50 0 \; f3shiftLine 0.8 \, 1.1 80 0 \; burstFreqLine 1000 \; burstGainLine 0.8 \, 0 2 \, 0.8 2 5 \, 0 2 15 \; pulseGainLine 0 \, 1 20 18 \, 0.7 220 60 \, 0 20 300, f 44;
#X msg 1249 3837 \; f1shiftLine 0.3 \, 0.7 50 0 \; f2shiftLine 1.2 \, 1 40 0 \; f3shiftLine 0.8 \, 1 80 0 \; burstFreqLine 1000 \; burstGainLine 0.8 \, 0 2 \, 0.8 2 5 \, 0 2 15 \; pulseGainLine 0 \, 1 15 \, 0.7 200 20 \, 0 20 300;
#X msg 1600 3837 \; f1shiftLine 0.4 \, 1.2 60 0 \; f2shiftLine 1.6 \, 1.3 50 0 \; f3shiftLine 0.9 \, 1.2 80 0 \; burstFreqLine 1000 \; burstGainLine 0.8 \, 0 2 \, 0.8 2 5 \, 0 2 15 \; pulseGainLine 0 \, 1 15 \, 0.7 200 20 \, 0 20 300;
#X msg 1249 3707 \; f1shiftLine 0.5 \, 0.7 60 5 \; f2shiftLine 1.2 \, 0.9 60 5 \; f3shiftLine 1.1 \, 1 90 0 \; burstFreqLine 1000 \; burstGainLine 0.8 \, 0 20 \; pulseGainLine 0 \, 1 20 \, 0.7 200 20 \, 0 20 300;
#X text 507 3968 /gy/;
#X obj 245 1145 lowpass~ 500 5;
#X msg 1600 4549 \; f1shiftLine 0.4 \, 1.2 50 0 \; f2shiftLine 1.7 \, 1.3 50 0 \; f3shiftLine 0.9 \, 1.2 80 0 \; burstFreqLine 2000 \; burstGainLine 0.8 \, 0 2 \, 0.8 2 5 \, 0 2 15 \; pulseGainLine 0 \, 1 20 18 \, 0.7 220 60 \, 0 20 300, f 44;
#X text 507 4290 /py/;
#X text 507 4676 /ky/;
#X msg 556 4291 \; f1shiftLine 0.5 \, 1.59 70 0 \; f2shiftLine 0.5 \, 1.6 30 \, 0.76 90 30 \; f3shiftLine 1 \, 1.25 120 0 \; burstFreqLine 300 \; burstGainLine 2 \, 0 20 \; pulseGainLine 0 \, 1 20 10 \, 0.7 220 60 \, 0 20 300;
#X msg 1249 4291 \; f1shiftLine 0.5 \, 0.7 70 0 \; f2shiftLine 0.5 \, 1.6 30 \, 0.9 90 30 \; f3shiftLine 1 \, 1 120 0 \; burstFreqLine 300 \; burstGainLine 2 \, 0 20 \; pulseGainLine 0 \, 1 20 10 \, 0.7 220 60 \, 0 20 300;
#X msg 1600 4291 \; f1shiftLine 0.3 \, 1.2 70 0 \; f2shiftLine 0.5 \, 1.6 30 \, 1.3 90 30 \; f3shiftLine 1 \, 1.2 120 0 \; burstFreqLine 300 \; burstGainLine 2 \, 0 20 \; pulseGainLine 0 \, 1 20 10 \, 0.7 220 60 \, 0 20 300;
#X msg 1945 1746 \; f1shiftLine 1.1 \, 0.95 40 100 \; f2shiftLine 0.7 \, 0.54 100 100 \; f3shiftLine 1.3 \, 1.25 100 100 \; unvoicedLpfLine 14000 \; unvoicedHpfLine 6200 \; unvoicedGainLine 0 \, 0.4 50 \, 0.3 60 50 \, 0 20 100 \; pulseGainLine 0 \, 1 20 100 \, 0.7 220 140 \, 0 20 360, f 44;
#X text 507 2343 /z/;
#X text 507 2497 /j/;
#X msg 1249 2498 \; f1shiftLine 0.6 \, 0.7 40 100 \; f2shiftLine 1.2 \, 1 100 100 \; f3shiftLine 1 \, 1 100 100 \; unvoicedLpfLine 12000 \; unvoicedHpfLine 3500 \; unvoicedGainLine 0 \, 0.4 10 70 \, 0 20 100 \; pulseGainLine 0 \, 1 20 80 \, 0.7 220 140 \, 0 20 360, f 44;
#X msg 1600 2498 \; f1shiftLine 0.7 \, 1.2 40 100 \; f2shiftLine 1.35 \, 1.3 100 100 \; f3shiftLine 1 \, 1.2 100 100 \; unvoicedLpfLine 12000 \; unvoicedHpfLine 3500 \; unvoicedGainLine 0 \, 0.4 10 70 \, 0 20 100 \; pulseGainLine 0 \, 1 20 80 \, 0.7 220 140 \, 0 20 360, f 44;
#X msg 1945 2498 \; f1shiftLine 0.7 \, 0.95 40 100 \; f2shiftLine 1.2 \, 0.54 100 100 \; f3shiftLine 0.9 \, 1.25 90 100 \; unvoicedLpfLine 12000 \; unvoicedHpfLine 3500 \; unvoicedGainLine 0 \, 0.4 10 70 \, 0 20 100 \; pulseGainLine 0 \, 1 20 80 \, 0.7 220 140 \, 0 20 360, f 44;
#X msg 901 2498 \; f1shiftLine 0.6 \, 0.68 40 80 \; f2shiftLine 1.4 \, 1.58 110 80 \; f3shiftLine 1 \, 1.3 110 100 \; unvoicedLpfLine 12000 \; unvoicedHpfLine 3500 \; unvoicedGainLine 0 \, 0.4 10 70 \, 0 20 100 \; pulseGainLine 0 \, 1 20 80 \, 0.7 220 140 \, 0 20 360, f 44;
#X text 507 4957 /ny/;
#X text 507 5195 /my/;
#X text 507 5467 /ry/;
#X obj 359 105 vline~;
#X obj 359 73 r pulseLpfShiftLine;
#X obj 359 137 s~ pulseLpfShift;
#X msg 260 1627 \; vtlen 13.5 \; f0 300 \; pulseLpf 3500 \; pulseLpfShiftLine 1 \; breathRatio 0.02 \; breathHpf 500 \; breathLpf 8000;
#X msg 260 1766 \; vtlen 14.8 \; f0 277 \; pulseLpf 3500 \; pulseLpfShiftLine 1 \; breathRatio 0.015 \; breathHpf 500 \; breathLpf 8000;
#X msg 260 1907 \; vtlen 16.8 \; f0 170 \; pulseLpf 3500 \; pulseLpfShiftLine 1 \; breathRatio 0.01 \; breathHpf 500 \; breathLpf 8000;
#X msg 260 2052 \; vtlen 17.5 \; f0 90 \; pulseLpf 1500 \; pulseLpfShiftLine 1 \; breathRatio 0.002 \; breathHpf 1000 \; breathLpf 6000;
#X msg 105 1627 \; vtlen 13.5 \; f0 300 \; pulseLpf 3500 \; pulseLpfShiftLine 1 \; breathRatio 1 \; breathHpf 500 \; breathLpf 8000;
#X obj 245 932 lowpass~ 18000 1;
#X obj 385 820 r~ pulseLpfShift;
#X obj 385 849 *~ 18000;
#X msg 1945 4291 \; f1shiftLine 0.3 \, 0.95 70 0 \; f2shiftLine 0.5 \, 1 30 \, 0.55 90 30 \; f3shiftLine 1 \, 1.1 120 0 \; burstFreqLine 300 \; burstGainLine 2 \, 0 20 \; pulseGainLine 0 \, 1 20 10 \, 0.7 220 60 \, 0 20 300;
#X msg 901 4677 \; f1shiftLine 0.5 \, 0.68 50 10 \; f2shiftLine 1.9 \, 1.58 50 20 \; f3shiftLine 1.4 \, 1.3 80 20 \; burstFreqLine 2500 \; burstGainLine 0.8 \, 0 2 \, 0.8 2 5 \, 0 2 15 \; pulseGainLine 0 \, 1 20 20 \, 0.7 220 60 \, 0 20 300, f 44;
#X msg 556 3969 \; f1shiftLine 0.3 \, 1.59 60 0 \; f2shiftLine 1 \, 1.6 20 \, 0.76 100 20 \; f3shiftLine 1.3 \, 1 20 \, 1.25 100 20 \; burstFreqLine 1000 \; burstGainLine 0.8 \, 0 2 \, 0.8 2 5 \, 0 2 15 \; pulseGainLine 0 \, 1 15 10 \, 0.7 200 30 \, 0 20 300;
#X msg 1249 3969 \; f1shiftLine 0.3 \, 0.7 80 0 \; f2shiftLine 1.2 \, 1.6 20 \, 0.9 100 20 \; f3shiftLine 0.8 \, 1 20 \, 1 100 20 \; burstFreqLine 1500 \; burstGainLine 0.8 \, 0 2 \, 0.8 2 5 \, 0 2 15 \; pulseGainLine 0 \, 1 15 10 \, 0.7 200 30 \, 0 20 300, f 44;
#X msg 1600 3969 \; f1shiftLine 0.4 \, 1.2 80 0 \; f2shiftLine 1.2 \, 1.7 20 \, 1.3 100 20 \; f3shiftLine 0.9 \, 1.1 20 \, 1.2 100 20 \; burstFreqLine 2000 \; burstGainLine 0.8 \, 0 2 \, 0.8 2 5 \, 0 2 15 \; pulseGainLine 0 \, 1 15 10 \, 0.7 200 30 \, 0 20 300, f 44;
#X msg 1945 3969 \; f1shiftLine 0.3 \, 0.95 80 0 \; f2shiftLine 0.7 \, 1.3 20 \, 0.55 100 20 \; f3shiftLine 0.9 \, 1.2 20 \, 1.1 100 20 \; burstFreqLine 2000 \; burstGainLine 0.8 \, 0 2 \, 0.8 2 5 \, 0 2 15 \; pulseGainLine 0 \, 1 15 10 \, 0.7 200 30 \, 0 20 300, f 44;
#X msg 1945 2799 \; f1shiftLine 0.7 \, 0.95 40 100 \; f2shiftLine 1.4 \, 0.54 140 100 \; f3shiftLine 1 \, 1.25 60 100 \; unvoicedLpfLine 5000 \; unvoicedHpfLine 3000 \; unvoicedGainLine 0 \, 0.4 50 \, 0.3 60 50 \, 0 20 110 \; pulseGainLine 0 \, 1 20 100 \, 0.7 220 140 \, 0 20 360, f 44;
#X msg 1945 3170 \; f1shiftLine 0.6 \, 0.95 70 10 \; f2shiftLine 1.2 \, 0.55 100 10 \; f3shiftLine 1.2 \, 1.1 70 10 \; pulseGainLine 0 \, 1 25 \, 0.7 200 20 \, 0 20 300;
#X msg 1600 3170 \; f1shiftLine 0.7 \, 1.2 70 10 \; f2shiftLine 1.6 \, 1.3 100 10 \; f3shiftLine 1.3 \, 1.2 70 10 \; pulseGainLine 0 \, 1 20 \, 0.7 200 20 \, 0 20 300;
#X msg 1249 3434 \; f1shiftLine 0.4 \, 0.7 50 10 \; f2shiftLine 0.7 \, 0.9 50 10 \; f3shiftLine 1 \, 1 70 0 \; burstFreqLine 100 \; burstGainLine 2 \, 0 20 \; pulseGainLine 0 \, 1 20 \, 0.7 200 20 \, 0 20 300;
#X msg 1945 3434 \; f1shiftLine 0.4 \, 0.95 50 10 \; f2shiftLine 0.4 \, 0.55 50 10 \; f3shiftLine 1 \, 1.1 70 0 \; burstFreqLine 100 \; burstGainLine 2 \, 0 20 \; pulseGainLine 0 \, 1 20 \, 0.7 200 20 \, 0 20 300;
#X msg 1945 3837 \; f1shiftLine 0.4 \, 0.95 60 0 \; f2shiftLine 0.8 \, 0.55 50 0 \; f3shiftLine 0.8 \, 1.1 80 0 \; burstFreqLine 1000 \; burstGainLine 0.8 \, 0 2 \, 0.8 2 5 \, 0 2 15 \; pulseGainLine 0 \, 1 15 \, 0.7 200 20 \, 0 20 300;
#X msg 901 3969 \; f1shiftLine 0.3 \, 0.68 60 0 \; f2shiftLine 1.9 \, 1.58 40 0 \; f3shiftLine 1.4 \, 1.3 90 0 \; burstFreqLine 1000 \; burstGainLine 0.8 \, 0 2 \, 0.8 2 5 \, 0 2 15 \; pulseGainLine 0 \, 1 15 \, 0.7 200 20 \, 0 20 300;
#X msg 901 1900 \; f1shiftLine 0.6 \, 0.68 40 100 \; f2shiftLine 1.3 \, 1.58 110 100 \; f3shiftLine 1 \, 1.3 110 100 \; unvoicedLpfLine 12000 \; unvoicedHpfLine 3500 \; unvoicedGainLine 0 \, 0.4 50 \, 0.3 60 50 \, 0 20 110 \; pulseGainLine 0 \, 1 20 100 \, 0.7 220 140 \, 0 20 360, f 44;
#X msg 556 2498 \; f1shiftLine 1.1 \, 1.59 50 90 \; f2shiftLine 1.2 \, 0.76 100 90 \; f3shiftLine 1 \, 1.25 100 90 \; unvoicedLpfLine 12000 \; unvoicedHpfLine 3500 \; unvoicedGainLine 0 \, 0.4 10 70 \, 0 20 100 \; pulseGainLine 0 \, 1 20 80 \, 0.7 220 140 \, 0 20 360, f 44;
#X msg 556 2344 \; f1shiftLine 0.9 \, 1.59 50 90 \; f2shiftLine 0.9 \, 0.76 100 90 \; f3shiftLine 1.3 \, 1.25 100 90 \; unvoicedLpfLine 10000 \; unvoicedHpfLine 6500 \; unvoicedGainLine 0 \, 0.4 10 60 \, 0 20 100 \; pulseGainLine 0 \, 1 20 80 \, 0.7 220 140 \, 0 20 360, f 44;
#X msg 901 2344 \; f1shiftLine 0.9 \, 0.68 60 70 \; f2shiftLine 1 \, 1.58 90 90 \; f3shiftLine 1.3 \, 1.3 90 90 \; unvoicedLpfLine 12000 \; unvoicedHpfLine 6500 \; unvoicedGainLine 0 \, 0.4 10 60 \, 0 20 100 \; pulseGainLine 0 \, 1 20 80 \, 0.7 220 140 \, 0 20 360, f 44;
#X msg 1249 2344 \; f1shiftLine 0.9 \, 0.7 60 70 \; f2shiftLine 0.8 \, 1 100 90 \; f3shiftLine 1 \, 1 100 90 \; unvoicedLpfLine 10000 \; unvoicedHpfLine 6500 \; unvoicedGainLine 0 \, 0.4 10 60 \, 0 20 100 \; pulseGainLine 0 \, 1 20 80 \, 0.7 220 140 \, 0 20 360, f 44;
#X msg 1600 2344 \; f1shiftLine 0.9 \, 1.2 80 70 \; f2shiftLine 0.9 \, 1.3 100 80 \; f3shiftLine 1.3 \, 1.2 100 80 \; unvoicedLpfLine 10000 \; unvoicedHpfLine 6500 \; unvoicedGainLine 0 \, 0.4 10 60 \, 0 20 100 \; pulseGainLine 0 \, 1 20 80 \, 0.7 220 140 \, 0 20 360, f 44;
#X msg 556 2194 \; f1shiftLine 0.6 \, 1.59 60 100 \; f2shiftLine 0.9 \, 0.76 70 100 \; f3shiftLine 0.9 \, 1.25 70 100 \; unvoicedLpfLine 10000 \; unvoicedHpfLine 2500 \; unvoicedGainLine 0 \, 0.6 10 80 \, 0.6 20 85 \, 0 20 100 \; pulseGainLine 0 \, 1 20 110 \, 0.7 220 140 \, 0 20 360, f 45;
#X msg 1600 2194 \; f1shiftLine 0.6 \, 1.2 70 100 \; f2shiftLine 1 \, 1.3 70 100 \; f3shiftLine 0.9 \, 1.2 70 100 \; unvoicedLpfLine 10000 \; unvoicedHpfLine 2500 \; unvoicedGainLine 0 \, 0.5 10 80 \, 0.5 20 85 \, 0 20 100 \; pulseGainLine 0 \, 1 20 110 \, 0.7 220 140 \, 0 20 360, f 45;
#X msg 901 3269 \; f1shiftLine 0.9 \, 0.68 90 5 \; f2shiftLine 0.8 \, 1.58 90 5 \; f3shiftLine 0.9 \, 1.3 90 5 \; pulseGainLine 0 \, 1 25 \, 0.7 200 20 \, 0 20 300;
#X msg 1600 3269 \; f1shiftLine 0.8 \, 1.2 90 5 \; f2shiftLine 0.7 \, 1.3 90 5 \; f3shiftLine 0.9 \, 1.2 100 5 \; pulseGainLine 0 \, 1 20 \, 0.7 200 20 \, 0 20 300;
#X msg 1945 3269 \; f1shiftLine 0.6 \, 0.95 90 5 \; f2shiftLine 0.5 \, 0.6 70 5 \; f3shiftLine 0.9 \, 1.1 70 5 \; pulseGainLine 0 \, 1 25 \, 0.7 200 20 \, 0 20 300;
#X msg 556 3269 \; f1shiftLine 0.8 \, 1.59 90 5 \; f2shiftLine 0.6 \, 0.76 100 5 \; f3shiftLine 0.9 \, 1.25 90 5 \; pulseGainLine 0 \, 1 30 \, 0.7 220 60 \, 0 20 300;
#X msg 1600 4677 \; f1shiftLine 0.4 \, 1.2 80 0 \; f2shiftLine 1.2 \, 1.6 20 \, 1.3 90 20 \; f3shiftLine 0.9 \, 1.1 40 \, 1.2 90 40 \; burstFreqLine 2000 \; burstGainLine 0.8 \, 0 2 \, 0.8 2 5 \, 0 7 15 \; pulseGainLine 0 \, 1 20 20 \, 0.7 220 60 \, 0 20 300, f 44;
#X msg 1945 4677 \; f1shiftLine 0.3 \, 0.95 80 0 \; f2shiftLine 0.7 \, 1.1 20 \, 0.55 90 20 \; f3shiftLine 0.8 \, 1 40 \, 1.1 90 40 \; burstFreqLine 2000 \; burstGainLine 0.8 \, 0 2 \, 0.8 2 5 \, 0 7 15 \; pulseGainLine 0 \, 1 20 20 \, 0.7 220 60 \, 0 20 300, f 44;
#X msg 556 2052 \; f1shiftLine 1.1 \, 1.59 50 100 \; f2shiftLine 1.2 \, 0.76 100 100 \; f3shiftLine 1.1 \, 1.25 100 100 \; unvoicedLpfLine 12000 \; unvoicedHpfLine 3500 \; unvoicedGainLine 0 \, 0.4 5 85 \, 0.4 20 90 \, 0 20 110 \; pulseGainLine 0 \, 1 20 110 \, 0.7 220 140 \, 0 20 360, f 44;
#X msg 901 2052 \; f1shiftLine 0.7 \, 0.68 60 100 \; f2shiftLine 1.3 \, 1.58 110 100 \; f3shiftLine 1.1 \, 1.3 110 100 \; unvoicedLpfLine 12000 \; unvoicedHpfLine 3500 \; unvoicedGainLine 0 \, 0.4 5 85 \, 0.4 20 90 \, 0 20 110 \; pulseGainLine 0 \, 1 20 110 \, 0.7 220 140 \, 0 20 360, f 44;
#X msg 1249 2052 \; f1shiftLine 0.7 \, 0.7 50 100 \; f2shiftLine 1.4 \, 0.9 100 100 \; f3shiftLine 1.1 \, 1 100 100 \; unvoicedLpfLine 12000 \; unvoicedHpfLine 3500 \; unvoicedGainLine 0 \, 0.4 5 85 \, 0.4 20 90 \, 0 20 110 \; pulseGainLine 0 \, 1 20 110 \, 0.7 220 140 \, 0 20 360, f 44;
#X msg 1600 2052 \; f1shiftLine 0.7 \, 1.2 60 100 \; f2shiftLine 1.35 \, 1.3 100 100 \; f3shiftLine 1.1 \, 1.2 100 100 \; unvoicedLpfLine 12000 \; unvoicedHpfLine 3500 \; unvoicedGainLine 0 \, 0.4 5 85 \, 0.4 20 90 \, 0 20 110 \; pulseGainLine 0 \, 1 20 110 \, 0.7 220 140 \, 0 20 360, f 44;
#X msg 1945 2052 \; f1shiftLine 0.7 \, 0.95 60 100 \; f2shiftLine 1.2 \, 0.54 100 100 \; f3shiftLine 1.1 \, 1.25 100 100 \; unvoicedLpfLine 12000 \; unvoicedHpfLine 3500 \; unvoicedGainLine 0 \, 0.4 5 85 \, 0.4 20 90 \, 0 20 110 \; pulseGainLine 0 \, 1 20 110 \, 0.7 220 140 \, 0 20 360, f 44;
#X msg 1945 2344 \; f1shiftLine 0.9 \, 0.95 80 80 \; f2shiftLine 0.8 \, 0.54 100 90 \; f3shiftLine 1.3 \, 1.25 100 90 \; unvoicedLpfLine 10000 \; unvoicedHpfLine 6200 \; unvoicedGainLine 0 \, 0.4 10 60 \, 0 20 100 \; pulseGainLine 0 \, 1 20 80 \, 0.7 220 140 \, 0 20 360, f 44;
#X msg 556 4549 \; f1shiftLine 0.6 \, 1.59 50 0 \; f2shiftLine 1.4 \, 0.76 50 0 \; f3shiftLine 0.8 \, 1.25 80 0 \; burstFreqLine 1500 \; burstGainLine 0.8 \, 0 2 \, 0.8 2 5 \, 0 2 15 \; pulseGainLine 0 \, 1 20 18 \, 0.7 220 60 \, 0 20 300, f 44;
#X msg 1945 5196 \; f1shiftLine 0.7 \, 0.95 100 0 \; f2shiftLine 1.2 \, 0.55 120 50 \; f3shiftLine 1.2 \, 1 30 \, 1.1 130 30 \; pulseLpfShiftLine 0.02 \, 1 280 30 \; pulseGainLine 0 \, 1 20 \, 0.7 220 60 \, 0 20 300;
#X msg 1600 5196 \; f1shiftLine 0.7 \, 1.2 100 0 \; f2shiftLine 1.5 \, 1.3 120 50 \; f3shiftLine 1.3 \, 1 30 \, 1.2 130 30 \; pulseLpfShiftLine 0.02 \, 1 280 30 \; pulseGainLine 0 \, 1 20 \, 0.7 220 60 \, 0 20 300;
#X msg 1249 5196 \; f1shiftLine 0.5 \, 0.7 100 0 \; f2shiftLine 1.3 \, 0.9 120 50 \; f3shiftLine 1.3 \, 0.8 20 \, 1 130 20 \; pulseLpfShiftLine 0.02 \, 1 280 30 \; pulseGainLine 0 \, 1 20 \, 0.7 220 60 \, 0 20 300;
#X msg 556 5196 \; f1shiftLine 0.8 \, 1.59 100 20 \; f2shiftLine 1.4 \, 0.76 120 50 \; f3shiftLine 1.3 \, 0.8 20 \, 1.25 100 20 \; pulseLpfShiftLine 0.02 \, 1 280 30 \; pulseGainLine 0 \, 1 20 \, 0.7 220 60 \, 0 20 300, f 38;
#X msg 1249 4958 \; f1shiftLine 0.9 \, 0.7 70 60 \; f2shiftLine 1.9 \, 0.9 100 60 \; f3shiftLine 1.5 \, 1 60 40 \, 1 60 100 \; pulseLpfShiftLine 0.02 \, 1 300 45 \; pulseGainLine 0 \, 1 20 \, 0.7 220 60 \, 0 20 300;
#X msg 1600 4958 \; f1shiftLine 0.9 \, 1.2 70 60 \; f2shiftLine 1.9 \, 1.3 80 60 \; f3shiftLine 1.5 \, 1 60 40 \, 1.2 60 100 \; pulseLpfShiftLine 0.02 \, 1 300 45 \; pulseGainLine 0 \, 1 20 \, 0.7 220 60 \, 0 20 300;
#X msg 556 3707 \; f1shiftLine 0.4 \, 1.59 60 5 \; f2shiftLine 1.1 \, 0.76 90 5 \; f3shiftLine 1.3 \, 1.25 90 5 \; burstFreqLine 1000 \; burstGainLine 0.8 \, 0 20 \; pulseGainLine 0 \, 1 15 \, 0.7 200 20 \, 0 20 300;
#X msg 901 3707 \; f1shiftLine 0.4 \, 0.68 60 5 \; f2shiftLine 1.3 \, 1.58 90 5 \; f3shiftLine 1.1 \, 1.3 90 5 \; burstFreqLine 1000 \; burstGainLine 0.8 \, 0 20 \; pulseGainLine 0 \, 1 20 \, 0.7 200 20 \, 0 20 300;
#X msg 901 4420 \; f1shiftLine 0.3 \, 0.68 40 10 \; f2shiftLine 1 \, 1.58 80 10 \; f3shiftLine 1.1 \, 1.3 80 10 \; burstFreqLine 3000 \; burstGainLine 0.3 \, 0 15 \; pulseGainLine 0 \, 1 20 10 \, 0.7 220 60 \, 0 20 300;
#X msg 1945 4420 \; f1shiftLine 0.5 \, 0.95 30 10 \; f2shiftLine 0.8 \, 0.55 80 10 \; f3shiftLine 1.1 \, 1.1 80 10 \; burstFreqLine 3000 \; burstGainLine 0.3 \, 0 15 \; pulseGainLine 0 \, 1 20 10 \, 0.7 220 60 \, 0 20 300;
#X msg 1600 4420 \; f1shiftLine 0.7 \, 1.2 30 10 \; f2shiftLine 1.2 \, 1.3 80 10 \; f3shiftLine 1.1 \, 1.2 80 10 \; burstFreqLine 3000 \; burstGainLine 0.3 \, 0 15 \; pulseGainLine 0 \, 1 20 10 \, 0.7 220 60 \, 0 20 300;
#X msg 1249 4420 \; f1shiftLine 0.3 \, 0.7 30 10 \; f2shiftLine 1 \, 0.9 80 10 \; f3shiftLine 1.1 \, 1 80 10 \; burstFreqLine 3000 \; burstGainLine 0.3 \, 0 15 \; pulseGainLine 0 \, 1 20 10 \, 0.7 220 60 \, 0 20 300;
#X msg 901 5196 \; f1shiftLine 0.5 \, 0.68 80 20 \; f2shiftLine 1.4 \, 1.58 120 20 \; f3shiftLine 1.3 \, 1.3 100 20 \; pulseLpfShiftLine 0.015 \, 1 280 60 \; pulseGainLine 0 \, 1 20 \, 0.7 220 60 \, 0 20 300;
#X msg 901 2194 \; f1shiftLine 0.5 \, 0.68 100 100 \; f2shiftLine 0.9 \, 1.58 100 100 \; f3shiftLine 0.9 \, 1.3 100 100 \; unvoicedLpfLine 10000 \; unvoicedHpfLine 2500 \; unvoicedGainLine 0 \, 0.5 10 80 \, 0.5 20 85 \, 0 20 100 \; pulseGainLine 0 \, 1 20 110 \, 0.7 220 140 \, 0 20 360, f 45;
#X msg 1945 2194 \; f1shiftLine 0.45 \, 0.95 90 100 \; f2shiftLine 0.9 \, 0.54 90 100 \; f3shiftLine 0.9 \, 1.25 90 100 \; unvoicedLpfLine 10000 \; unvoicedHpfLine 2500 \; unvoicedGainLine 0 \, 0.5 10 80 \, 0.5 20 85 \, 0 20 100 \; pulseGainLine 0 \, 1 20 110 \, 0.7 220 140 \, 0 20 360, f 45;
#X msg 556 5083 \; f1shiftLine 0.7 \, 1.59 80 20 \; f2shiftLine 0.5 \, 0.76 80 20 \; f3shiftLine 0.8 \, 1.3 100 20 \; pulseLpfShiftLine 0.015 \, 1 280 60 \; pulseGainLine 0 \, 1 20 \, 0.7 220 60 \, 0 20 300;
#X msg 1249 5083 \; f1shiftLine 0.7 \, 0.7 80 20 \; f2shiftLine 0.6 \, 0.9 80 20 \; f3shiftLine 0.8 \, 1 100 20 \; pulseLpfShiftLine 0.015 \, 1 280 60 \; pulseGainLine 0 \, 1 20 \, 0.7 220 60 \, 0 20 300;
#X msg 1600 5083 \; f1shiftLine 0.7 \, 1.2 80 20 \; f2shiftLine 0.6 \, 1.3 80 20 \; f3shiftLine 0.8 \, 1.2 100 20 \; pulseLpfShiftLine 0.015 \, 1 280 60 \; pulseGainLine 0 \, 1 20 \, 0.7 220 60 \, 0 20 300;
#X msg 1945 4845 \; f1shiftLine 0.8 \, 0.95 110 20 \; f2shiftLine 1.1 \, 0.55 100 20 \; f3shiftLine 1 \, 1.1 120 0 \; pulseLpfShiftLine 0.015 \, 1 200 55 \; pulseGainLine 0 \, 1 20 \, 0.7 220 60 \, 0 20 300;
#X msg 901 4958 \; f1shiftLine 0.9 \, 0.68 100 20 \; f2shiftLine 1.9 \, 1.58 120 60 \; f3shiftLine 1.5 \, 1.3 120 0 \; pulseLpfShiftLine 0.015 \, 1 200 55 \; pulseGainLine 0 \, 1 20 \, 0.7 220 60 \, 0 20 300;
#X msg 556 4845 \; f1shiftLine 0.8 \, 1.59 120 20 \; f2shiftLine 1.25 \, 0.76 120 20 \; f3shiftLine 1.1 \, 1.3 120 0 \; pulseLpfShiftLine 0.015 \, 1 200 55 \; pulseGainLine 0 \, 1 20 \, 0.7 220 60 \, 0 20 300;
#X msg 1600 4845 \; f1shiftLine 0.9 \, 1.2 140 20 \; f2shiftLine 1.35 \, 1.3 120 20 \; f3shiftLine 1.2 \, 1.2 100 0 \; pulseLpfShiftLine 0.015 \, 1 200 55 \; pulseGainLine 0 \, 1 20 \, 0.7 220 60 \, 0 20 300;
#X msg 1249 4845 \; f1shiftLine 0.9 \, 0.7 120 20 \; f2shiftLine 1.3 \, 0.9 100 20 \; f3shiftLine 1.2 \, 1 100 0 \; pulseLpfShiftLine 0.015 \, 1 200 55 \; pulseGainLine 0 \, 1 20 \, 0.7 220 60 \, 0 20 300;
#X msg 1945 1629 \; f1shiftLine 0.95 \; f2shiftLine 0.54 \; f3shiftLine 1.1 \; pulseGainLine 0 \, 1 15 \, 0.7 225 15 \, 0 20 240, f 38;
#X msg 556 4958 \; f1shiftLine 0.9 \, 1.59 70 60 \; f2shiftLine 1.9 \, 0.76 120 60 \; f3shiftLine 1.5 \, 1 60 40 \, 1.3 60 100 \; pulseLpfShiftLine 0.02 \, 1 300 45 \; pulseGainLine 0 \, 1 20 \, 0.7 220 60 \, 0 20 300;
#X msg 1249 2194 \; f1shiftLine 0.5 \, 0.7 60 100 \; f2shiftLine 0.9 \, 1 90 100 \; f3shiftLine 0.8 \, 1 90 100 \; unvoicedLpfLine 10000 \; unvoicedHpfLine 2500 \; unvoicedGainLine 0 \, 0.5 10 80 \, 0.5 20 85 \, 0 20 100 \; pulseGainLine 0 \, 1 20 105 \, 0.7 220 140 \, 0 20 360, f 45;
#X msg 1945 4958 \; f1shiftLine 0.9 \, 0.95 70 60 \; f2shiftLine 1.5 \, 0.55 90 60 \; f3shiftLine 1.3 \, 1 60 40 \, 1.1 60 100 \; pulseLpfShiftLine 0.02 \, 1 300 45 \; pulseGainLine 0 \, 1 20 \, 0.7 220 60 \, 0 20 300;
#X msg 556 5337 \; f1shiftLine 0.6 \, 1.59 50 0 \; f2shiftLine 1 \, 0.76 80 50 \; f3shiftLine 1 \, 1.25 60 0 \; burstFreqLine 1000 \; burstGainLine 0 \, 0.5 5 25 \, 0 15 30 \; pulseGainLine 0 \, 0.4 20 \, 1 20 20 \, 0.7 220 60 \, 0 20 300;
#X msg 1249 5337 \; f1shiftLine 0.5 \, 0.7 50 0 \; f2shiftLine 1 \, 0.9 100 40 \; f3shiftLine 0.7 \, 1.1 60 0 \; burstFreqLine 1000 \; burstGainLine 0 \, 0.5 5 25 \, 0 15 30 \; pulseGainLine 0 \, 0.4 20 \, 1 20 20 \, 0.7 220 60 \, 0 20 300;
#X msg 1600 5337 \; f1shiftLine 0.6 \, 1.2 50 0 \; f2shiftLine 1 \, 1.3 80 50 \; f3shiftLine 1.2 \, 1.2 60 0 \; burstFreqLine 1000 \; burstGainLine 0 \, 0.5 5 25 \, 0 15 30 \; pulseGainLine 0 \, 0.4 20 \, 1 20 20 \, 0.7 220 60 \, 0 20 300;
#X msg 1945 5337 \; f1shiftLine 0.6 \, 0.95 50 0 \; f2shiftLine 0.75 \, 0.55 80 40 \; f3shiftLine 0.8 \, 1.1 60 0 \; burstFreqLine 1000 \; burstGainLine 0 \, 0.5 5 25 \, 0 15 30 \; pulseGainLine 0 \, 0.4 20 \, 1 20 20 \, 0.7 220 60 \, 0 20 300;
#X msg 1945 5083 \; f1shiftLine 0.8 \, 0.95 100 20 \; f2shiftLine 0.5 \, 0.55 100 20 \; f3shiftLine 0.8 \, 1 100 20 \; pulseLpfShiftLine 0.015 \, 1 280 60 \; pulseGainLine 0 \, 1 20 \, 0.7 220 60 \, 0 20 300;
#X msg 901 5468 \; f1shiftLine 0.6 \, 0.68 50 0 \; f2shiftLine 1.2 \, 1.58 80 0 \; f3shiftLine 1.5 \, 1.3 50 0 \; burstFreqLine 1000 \; burstGainLine 0 \, 0.5 5 25 \, 0 15 30 \; pulseGainLine 0 \, 0.4 20 \, 1 20 20 \, 0.7 220 60 \, 0 20 300;
#X msg 556 4420 \; f1shiftLine 0.8 \, 1.59 30 10 \; f2shiftLine 1 \, 0.76 80 10 \; f3shiftLine 1.1 \, 1.25 80 10 \; burstFreqLine 3000 \; burstGainLine 0.5 \, 0 15 \; pulseGainLine 0 \, 1 20 10 \, 0.7 220 60 \, 0 20 300;
#X msg 556 5468 \; f1shiftLine 0.5 \, 1.59 80 0 \; f2shiftLine 1.4 \, 0.76 120 30 \; f3shiftLine 1.6 \, 1 50 \, 1.25 70 50 \; burstFreqLine 1000 \; burstGainLine 0 \, 0.5 5 25 \, 0 15 30 \; pulseGainLine 0 \, 0.4 20 \, 1 30 20 \, 0.7 220 60 \, 0 20 300;
#X msg 1249 5468 \; f1shiftLine 0.4 \, 0.7 80 0 \; f2shiftLine 1.4 \, 0.9 120 30 \; f3shiftLine 1.6 \, 1 50 \, 1.1 70 50 \; burstFreqLine 1000 \; burstGainLine 0 \, 0.5 5 25 \, 0 15 30 \; pulseGainLine 0 \, 0.4 20 \, 1 30 20 \, 0.7 220 60 \, 0 20 300;
#X msg 1600 5468 \; f1shiftLine 0.5 \, 1.2 80 0 \; f2shiftLine 1.5 \, 1.3 120 30 \; f3shiftLine 1.6 \, 1 50 \, 1.2 70 50 \; burstFreqLine 1000 \; burstGainLine 0 \, 0.5 5 25 \, 0 15 30 \; pulseGainLine 0 \, 0.4 20 \, 1 30 20 \, 0.7 220 60 \, 0 20 300;
#X msg 1945 5468 \; f1shiftLine 0.5 \, 0.95 80 0 \; f2shiftLine 1.2 \, 0.55 120 30 \; f3shiftLine 1.6 \, 1 50 \, 1.1 70 50 \; burstFreqLine 1000 \; burstGainLine 0 \, 0.5 5 25 \, 0 15 30 \; pulseGainLine 0 \, 0.4 20 \, 1 30 20 \, 0.7 220 60 \, 0 20 300;
#X msg 556 4677 \; f1shiftLine 0.6 \, 1.59 60 0 \; f2shiftLine 1.2 \, 1.4 20 \, 0.76 90 40 \; f3shiftLine 1.4 \, 0.9 40 \, 1.25 90 40 \; burstFreqLine 1500 \; burstGainLine 0.8 \, 0 2 \, 0.8 2 5 \, 0 7 15 \; pulseGainLine 0 \, 1 20 20 \, 0.7 220 60 \, 0 20 300, f 44;
#X msg 1249 4677 \; f1shiftLine 0.3 \, 0.7 80 0 \; f2shiftLine 1.2 \, 1.4 20 \, 0.9 90 40 \; f3shiftLine 1.4 \, 0.9 40 \, 1 90 40 \; burstFreqLine 1500 \; burstGainLine 0.8 \, 0 2 \, 0.8 2 5 \, 0 7 15 \; pulseGainLine 0 \, 1 20 20 \, 0.7 220 60 \, 0 20 300, f 44;
#X connect 1 0 45 0;
#X connect 2 0 0 0;
#X connect 2 0 0 1;
#X connect 3 0 4 0;
#X connect 3 0 4 1;
#X connect 4 0 19 1;
#X connect 5 0 6 0;
#X connect 6 0 143 0;
#X connect 7 0 55 0;
#X connect 8 0 55 0;
#X connect 9 0 10 0;
#X connect 10 0 11 0;
#X connect 11 0 13 0;
#X connect 11 0 23 0;
#X connect 11 0 27 0;
#X connect 11 0 67 1;
#X connect 11 0 15 0;
#X connect 11 0 21 0;
#X connect 11 0 24 0;
#X connect 11 0 12 0;
#X connect 11 0 14 0;
#X connect 12 0 84 1;
#X connect 13 0 85 1;
#X connect 14 0 80 0;
#X connect 15 0 81 0;
#X connect 16 0 55 0;
#X connect 17 0 55 0;
#X connect 18 0 55 0;
#X connect 19 0 2 0;
#X connect 21 0 20 0;
#X connect 23 0 22 0;
#X connect 24 0 25 0;
#X connect 27 0 26 0;
#X connect 28 0 55 0;
#X connect 29 0 55 0;
#X connect 30 0 55 0;
#X connect 31 0 238 0;
#X connect 32 0 48 0;
#X connect 33 0 238 0;
#X connect 34 0 32 0;
#X connect 35 0 5 0;
#X connect 36 0 9 0;
#X connect 37 0 45 1;
#X connect 37 0 46 1;
#X connect 38 0 41 0;
#X connect 39 0 42 0;
#X connect 40 0 55 0;
#X connect 41 0 32 1;
#X connect 42 0 48 1;
#X connect 43 0 51 1;
#X connect 43 0 136 0;
#X connect 44 0 43 0;
#X connect 45 0 46 0;
#X connect 46 0 31 0;
#X connect 48 0 137 0;
#X connect 50 0 54 0;
#X connect 51 0 33 1;
#X connect 52 0 31 1;
#X connect 53 0 52 0;
#X connect 53 0 51 0;
#X connect 55 0 63 0;
#X connect 56 0 233 0;
#X connect 57 0 50 0;
#X connect 63 0 19 0;
#X connect 66 0 67 0;
#X connect 67 0 68 0;
#X connect 71 0 213 1;
#X connect 72 0 189 1;
#X connect 73 0 130 1;
#X connect 74 0 134 1;
#X connect 75 0 131 1;
#X connect 76 0 120 1;
#X connect 77 0 121 1;
#X connect 78 0 84 0;
#X connect 79 0 85 0;
#X connect 82 0 132 1;
#X connect 83 0 133 1;
#X connect 84 0 69 0;
#X connect 85 0 70 0;
#X connect 86 0 88 0;
#X connect 87 0 86 0;
#X connect 89 0 91 0;
#X connect 90 0 89 0;
#X connect 92 0 94 0;
#X connect 93 0 92 0;
#X connect 99 0 101 0;
#X connect 100 0 99 0;
#X connect 102 0 108 1;
#X connect 105 0 120 0;
#X connect 105 0 121 0;
#X connect 105 0 130 0;
#X connect 105 0 132 0;
#X connect 105 0 189 0;
#X connect 105 0 213 0;
#X connect 105 0 131 0;
#X connect 105 0 134 0;
#X connect 105 0 133 0;
#X connect 106 0 63 0;
#X connect 108 0 107 0;
#X connect 109 0 112 0;
#X connect 110 0 113 1;
#X connect 111 0 112 1;
#X connect 112 0 113 0;
#X connect 113 0 108 0;
#X connect 114 0 116 0;
#X connect 115 0 114 0;
#X connect 117 0 119 0;
#X connect 118 0 117 0;
#X connect 120 0 30 0;
#X connect 121 0 29 0;
#X connect 130 0 16 0;
#X connect 131 0 28 0;
#X connect 132 0 8 0;
#X connect 133 0 17 0;
#X connect 134 0 40 0;
#X connect 136 0 52 1;
#X connect 137 0 33 0;
#X connect 143 0 1 0;
#X connect 144 0 143 1;
#X connect 145 0 144 0;
#X connect 157 0 3 0;
#X connect 171 0 174 0;
#X connect 172 0 179 0;
#X connect 173 0 171 0;
#X connect 175 0 181 0;
#X connect 176 0 183 0;
#X connect 177 0 175 1;
#X connect 178 0 172 0;
#X connect 180 0 183 1;
#X connect 182 0 63 0;
#X connect 183 0 175 0;
#X connect 189 0 7 0;
#X connect 213 0 18 0;
#X connect 230 0 232 0;
#X connect 231 0 230 0;
#X connect 238 0 104 0;
#X connect 239 0 240 0;
#X connect 240 0 238 1;
